<svg xmlns="http://www.w3.org/2000/svg" xmlns:xlink="http://www.w3.org/1999/xlink" width="1024" zoomAndPan="magnify" viewBox="0 0 768 767.999994" height="1024" preserveAspectRatio="xMidYMid meet" version="1.2"><defs><clipPath id="2456267ed6"><path d="M 384 0 C 171.921875 0 0 171.921875 0 384 C 0 596.078125 171.921875 768 384 768 C 596.078125 768 768 596.078125 768 384 C 768 171.921875 596.078125 0 384 0 Z M 384 0 "/></clipPath><clipPath id="e2ce4a753e"><path d="M 272 138.84375 L 487 138.84375 L 487 356 L 272 356 Z M 272 138.84375 "/></clipPath><clipPath id="ece6c1e36e"><path d="M 439 369 L 653.703125 369 L 653.703125 586.59375 L 439 586.59375 Z M 439 369 "/></clipPath><clipPath id="f6a4ce7ed9"><path d="M 103.953125 369 L 319 369 L 319 586.59375 L 103.953125 586.59375 Z M 103.953125 369 "/></clipPath></defs><g id="a17d43c570"><g clip-rule="nonzero" clip-path="url(#2456267ed6)"><rect x="0" width="768" y="0" height="767.999994" style="fill:#59c4be;fill-opacity:1;stroke:none;"/></g><path style=" stroke:none;fill-rule:nonzero;fill:#ffffff;fill-opacity:1;" d="M 378.039062 363.308594 C 373.3125 363.308594 370.164062 366.460938 370.164062 371.1875 L 370.164062 445.222656 L 305.582031 483.027344 C 301.640625 485.390625 300.855469 490.113281 302.429688 494.050781 C 304.003906 496.414062 306.367188 497.992188 309.519531 497.992188 C 311.09375 497.992188 311.882812 497.992188 313.457031 497.203125 L 378.039062 459.398438 L 442.625 497.203125 C 444.199219 497.992188 444.984375 497.992188 446.5625 497.992188 C 448.925781 497.992188 452.074219 496.414062 453.648438 494.050781 C 456.011719 490.113281 454.4375 485.390625 450.5 483.027344 L 385.914062 445.222656 L 385.914062 371.1875 C 385.914062 366.460938 382.765625 363.308594 378.039062 363.308594 Z M 378.039062 363.308594 "/><g clip-rule="nonzero" clip-path="url(#e2ce4a753e)"><path style=" stroke:none;fill-rule:nonzero;fill:#ffffff;fill-opacity:1;" d="M 280.378906 355.433594 L 478.851562 355.433594 C 483.578125 355.433594 486.730469 352.285156 486.730469 347.558594 L 486.730469 331.019531 C 486.730469 292.425781 461.527344 256.984375 422.933594 241.230469 C 433.171875 230.203125 440.261719 215.242188 440.261719 199.488281 C 440.261719 166.410156 412.695312 138.84375 379.613281 138.84375 C 346.535156 138.84375 318.96875 166.410156 318.96875 199.488281 C 318.96875 216.027344 325.269531 230.992188 336.296875 241.230469 C 297.703125 256.984375 272.5 291.636719 272.5 331.019531 L 272.5 347.558594 C 272.5 352.285156 275.652344 355.433594 280.378906 355.433594 Z M 379.613281 154.59375 C 404.03125 154.59375 424.507812 175.074219 424.507812 199.488281 C 424.507812 215.242188 415.84375 229.417969 403.242188 237.292969 C 396.15625 241.230469 388.277344 244.382812 379.613281 244.382812 C 370.953125 244.382812 363.074219 242.019531 355.988281 237.292969 C 343.386719 229.417969 334.722656 215.242188 334.722656 199.488281 C 334.722656 175.074219 355.199219 154.59375 379.613281 154.59375 Z M 288.253906 331.019531 C 288.253906 294.789062 313.457031 264.070312 351.261719 253.046875 C 359.925781 257.769531 369.375 260.132812 379.613281 260.132812 C 389.855469 260.132812 399.304688 257.769531 407.96875 253.046875 C 444.984375 264.070312 470.976562 296.363281 470.976562 331.019531 L 470.976562 339.683594 L 288.253906 339.683594 Z M 288.253906 331.019531 "/></g><g clip-rule="nonzero" clip-path="url(#ece6c1e36e)"><path style=" stroke:none;fill-rule:nonzero;fill:#ffffff;fill-opacity:1;" d="M 589.90625 472 C 600.144531 460.972656 606.445312 446.007812 606.445312 430.257812 C 606.445312 397.175781 578.878906 369.609375 545.800781 369.609375 C 512.71875 369.609375 485.152344 397.175781 485.152344 430.257812 C 485.152344 446.796875 491.453125 461.761719 502.480469 472.785156 C 464.675781 488.539062 439.472656 522.40625 439.472656 561.785156 L 439.472656 578.324219 C 439.472656 583.050781 442.625 586.203125 447.347656 586.203125 L 645.824219 586.203125 C 650.550781 586.203125 653.703125 583.050781 653.703125 578.324219 L 653.703125 561.785156 C 653.703125 523.195312 627.710938 487.75 589.90625 472 Z M 545.800781 385.363281 C 570.214844 385.363281 590.691406 405.839844 590.691406 430.257812 C 590.691406 454.671875 570.214844 475.148438 545.800781 475.148438 C 537.921875 475.148438 530.835938 473.574219 524.535156 469.636719 C 523.746094 468.847656 522.171875 468.0625 520.597656 467.273438 C 508.78125 459.398438 500.117188 445.222656 500.117188 429.46875 C 500.90625 405.839844 521.382812 385.363281 545.800781 385.363281 Z M 637.949219 570.449219 L 455.226562 570.449219 L 455.226562 561.785156 C 455.226562 526.34375 480.429688 494.839844 517.445312 483.8125 C 526.109375 488.539062 535.5625 490.902344 545.800781 490.902344 C 556.039062 490.902344 566.277344 488.539062 574.941406 483.8125 C 611.957031 494.839844 637.949219 527.132812 637.949219 561.785156 Z M 637.949219 570.449219 "/></g><g clip-rule="nonzero" clip-path="url(#f6a4ce7ed9)"><path style=" stroke:none;fill-rule:nonzero;fill:#ffffff;fill-opacity:1;" d="M 254.386719 472 C 264.625 460.972656 270.925781 446.007812 270.925781 430.257812 C 270.925781 397.175781 243.359375 369.609375 210.28125 369.609375 C 177.199219 369.609375 149.632812 397.175781 149.632812 430.257812 C 149.632812 446.796875 155.933594 461.761719 166.960938 472.785156 C 129.15625 488.539062 103.953125 522.40625 103.953125 561.785156 L 103.953125 578.324219 C 103.953125 583.050781 107.105469 586.203125 111.828125 586.203125 L 310.304688 586.203125 C 315.03125 586.203125 318.183594 583.050781 318.183594 578.324219 L 318.183594 561.785156 C 318.183594 523.195312 292.191406 487.75 254.386719 472 Z M 210.28125 385.363281 C 234.695312 385.363281 255.171875 405.839844 255.171875 430.257812 C 255.171875 454.671875 234.695312 475.148438 210.28125 475.148438 C 202.402344 475.148438 195.316406 473.574219 189.015625 469.636719 C 188.226562 468.847656 186.652344 468.0625 185.078125 467.273438 C 173.261719 459.398438 164.597656 445.222656 164.597656 429.46875 C 165.386719 405.839844 185.863281 385.363281 210.28125 385.363281 Z M 302.429688 570.449219 L 119.707031 570.449219 L 119.707031 561.785156 C 119.707031 526.34375 144.910156 494.839844 181.925781 483.8125 C 190.589844 488.539062 200.042969 490.902344 210.28125 490.902344 C 220.519531 490.902344 230.757812 488.539062 239.421875 483.8125 C 276.4375 494.839844 302.429688 527.132812 302.429688 561.785156 Z M 302.429688 570.449219 "/></g></g></svg>