<svg xmlns="http://www.w3.org/2000/svg" xmlns:xlink="http://www.w3.org/1999/xlink" width="1024" zoomAndPan="magnify" viewBox="0 0 768 767.999994" height="1024" preserveAspectRatio="xMidYMid meet" version="1.2"><defs><clipPath id="bdd50db901"><path d="M 384 0 C 171.921875 0 0 171.921875 0 384 C 0 596.078125 171.921875 768 384 768 C 596.078125 768 768 596.078125 768 384 C 768 171.921875 596.078125 0 384 0 Z M 384 0 "/></clipPath><clipPath id="96c5352927"><path d="M 133.136719 140 L 640.886719 140 L 640.886719 647.550781 L 133.136719 647.550781 Z M 133.136719 140 "/></clipPath><clipPath id="e0f59559f4"><path d="M 337 63.300781 L 437 63.300781 L 437 109 L 337 109 Z M 337 63.300781 "/></clipPath></defs><g id="9864016550"><g clip-rule="nonzero" clip-path="url(#bdd50db901)"><rect x="0" width="768" y="0" height="767.999994" style="fill:#59c4be;fill-opacity:1;stroke:none;"/></g><path style=" stroke:none;fill-rule:evenodd;fill:#ffffff;fill-opacity:1;" d="M 386.75 606.644531 C 269.355469 606.644531 173.863281 511.152344 173.863281 394.101562 C 173.863281 289.027344 252.242188 198.328125 356.289062 183.609375 C 366.214844 182.242188 376.140625 181.898438 386.75 181.898438 C 395.308594 181.898438 402.835938 182.242188 410.710938 183.265625 L 411.738281 183.265625 C 411.738281 183.265625 411.738281 183.265625 412.421875 183.265625 C 519.207031 195.929688 599.296875 287.316406 599.296875 394.441406 C 599.296875 511.152344 503.804688 606.644531 386.75 606.644531 Z M 386.75 197.984375 C 377.511719 197.984375 367.585938 198.328125 358.6875 199.695312 C 262.851562 213.730469 190.636719 297.242188 190.636719 394.101562 C 190.636719 502.253906 278.253906 589.875 386.75 589.875 C 494.90625 589.875 582.523438 502.253906 582.523438 394.101562 C 582.523438 294.84375 508.597656 211.332031 410.367188 199.355469 L 409.339844 199.355469 C 401.8125 198.328125 394.625 197.984375 386.75 197.984375 Z M 386.75 197.984375 "/><path style=" stroke:none;fill-rule:evenodd;fill:#ffffff;fill-opacity:1;" d="M 386.75 244.53125 C 381.960938 244.53125 378.195312 240.765625 378.195312 235.976562 L 378.195312 211.332031 C 378.195312 206.542969 381.960938 202.777344 386.75 202.777344 C 391.542969 202.777344 395.308594 206.542969 395.308594 211.332031 L 395.308594 236.316406 C 395.308594 240.765625 391.542969 244.53125 386.75 244.53125 Z M 386.75 244.53125 "/><path style=" stroke:none;fill-rule:evenodd;fill:#ffffff;fill-opacity:1;" d="M 465.472656 265.753906 C 464.101562 265.753906 462.734375 265.410156 461.023438 264.726562 C 457.257812 262.671875 455.886719 257.878906 457.941406 253.429688 L 470.261719 232.210938 C 472.660156 228.445312 477.449219 226.734375 481.558594 228.789062 C 485.324219 231.183594 486.691406 235.976562 484.980469 240.082031 L 472.660156 261.644531 C 470.949219 264.382812 468.210938 265.753906 465.472656 265.753906 Z M 465.472656 265.753906 "/><path style=" stroke:none;fill-rule:evenodd;fill:#ffffff;fill-opacity:1;" d="M 523.3125 323.253906 C 520.574219 323.253906 517.496094 321.882812 516.125 319.144531 C 513.730469 315.039062 515.097656 309.902344 519.546875 307.507812 L 540.769531 295.1875 C 544.535156 292.792969 550.011719 294.160156 552.40625 298.609375 C 554.800781 302.375 553.089844 307.507812 548.984375 309.902344 L 527.761719 322.226562 C 526.050781 322.910156 524.683594 323.253906 523.3125 323.253906 Z M 523.3125 323.253906 "/><path style=" stroke:none;fill-rule:evenodd;fill:#ffffff;fill-opacity:1;" d="M 568.835938 401.972656 L 544.191406 401.972656 C 539.398438 401.972656 535.636719 398.207031 535.636719 393.417969 C 535.636719 388.625 539.398438 384.859375 544.191406 384.859375 L 568.835938 384.859375 C 573.625 384.859375 577.390625 388.625 577.390625 393.417969 C 577.390625 398.207031 573.625 401.972656 568.835938 401.972656 Z M 568.835938 401.972656 "/><path style=" stroke:none;fill-rule:evenodd;fill:#ffffff;fill-opacity:1;" d="M 544.535156 493.355469 C 543.164062 493.355469 541.796875 492.671875 540.425781 492.328125 L 519.207031 480.007812 C 515.097656 477.613281 513.730469 472.820312 515.785156 468.371094 C 518.179688 464.605469 522.972656 463.238281 527.078125 465.289062 L 548.640625 477.613281 C 552.40625 480.007812 553.773438 484.800781 551.722656 488.90625 C 550.351562 491.644531 547.613281 493.355469 544.535156 493.355469 Z M 544.535156 493.355469 "/><path style=" stroke:none;fill-rule:evenodd;fill:#ffffff;fill-opacity:1;" d="M 477.792969 560.097656 C 475.054688 560.097656 471.972656 558.726562 470.605469 555.992188 L 458.285156 534.429688 C 455.886719 530.664062 457.257812 525.527344 461.023438 523.132812 C 464.785156 520.738281 470.261719 522.105469 472.660156 525.871094 L 484.980469 547.433594 C 487.375 551.199219 485.664062 556.332031 481.898438 558.726562 C 480.53125 559.753906 479.160156 560.097656 477.792969 560.097656 Z M 477.792969 560.097656 "/><path style=" stroke:none;fill-rule:evenodd;fill:#ffffff;fill-opacity:1;" d="M 386.75 584.738281 C 381.960938 584.738281 378.195312 580.976562 378.195312 576.183594 L 378.195312 551.539062 C 378.195312 546.75 381.960938 542.984375 386.75 542.984375 C 391.542969 542.984375 395.308594 546.75 395.308594 551.539062 L 395.308594 576.183594 C 395.308594 580.976562 391.542969 584.738281 386.75 584.738281 Z M 386.75 584.738281 "/><path style=" stroke:none;fill-rule:evenodd;fill:#ffffff;fill-opacity:1;" d="M 296.050781 560.097656 C 294.683594 560.097656 292.972656 559.753906 291.601562 559.070312 C 287.835938 556.675781 286.46875 551.539062 288.863281 547.777344 L 301.1875 526.554688 C 303.582031 522.789062 308.714844 521.078125 312.480469 523.476562 C 316.246094 525.871094 317.957031 531.003906 315.5625 535.113281 L 303.238281 556.332031 C 301.1875 558.726562 298.789062 560.097656 296.050781 560.097656 Z M 296.050781 560.097656 "/><path style=" stroke:none;fill-rule:evenodd;fill:#ffffff;fill-opacity:1;" d="M 228.625 493.355469 C 225.546875 493.355469 222.808594 491.644531 221.4375 488.90625 C 219.042969 485.140625 220.414062 480.007812 224.863281 477.613281 L 246.082031 465.289062 C 249.847656 462.894531 254.980469 464.265625 257.375 468.371094 C 259.773438 472.476562 258.402344 477.613281 254.296875 480.007812 L 232.734375 492.328125 C 231.363281 493.355469 229.996094 493.355469 228.625 493.355469 Z M 228.625 493.355469 "/><path style=" stroke:none;fill-rule:evenodd;fill:#ffffff;fill-opacity:1;" d="M 228.96875 401.972656 L 204.324219 401.972656 C 199.535156 401.972656 195.769531 398.207031 195.769531 393.417969 C 195.769531 388.625 199.535156 384.859375 204.324219 384.859375 L 228.96875 384.859375 C 233.761719 384.859375 237.523438 388.625 237.523438 393.417969 C 237.523438 398.207031 233.761719 401.972656 228.96875 401.972656 Z M 228.96875 401.972656 "/><path style=" stroke:none;fill-rule:evenodd;fill:#ffffff;fill-opacity:1;" d="M 250.53125 323.253906 C 248.820312 323.253906 247.449219 322.910156 246.082031 322.226562 L 224.863281 309.902344 C 221.097656 307.507812 219.386719 302.714844 221.4375 298.609375 C 223.835938 294.84375 228.625 293.476562 232.734375 295.1875 L 254.296875 307.507812 C 258.0625 309.902344 259.429688 314.695312 257.375 319.144531 C 256.007812 321.882812 253.269531 323.253906 250.53125 323.253906 Z M 250.53125 323.253906 "/><path style=" stroke:none;fill-rule:evenodd;fill:#ffffff;fill-opacity:1;" d="M 307.6875 265.753906 C 304.949219 265.753906 302.210938 264.382812 300.84375 261.644531 L 288.523438 240.082031 C 286.125 236.316406 287.496094 231.183594 291.601562 228.789062 C 295.367188 226.390625 300.84375 227.761719 303.238281 232.210938 L 315.5625 253.429688 C 317.957031 257.195312 316.246094 262.671875 312.136719 264.726562 C 310.769531 265.410156 309.398438 265.753906 307.6875 265.753906 Z M 307.6875 265.753906 "/><path style=" stroke:none;fill-rule:evenodd;fill:#ffffff;fill-opacity:1;" d="M 472.660156 401.972656 L 386.75 401.972656 C 381.960938 401.972656 378.195312 398.207031 378.195312 393.417969 L 378.195312 275.679688 C 378.195312 270.886719 381.960938 267.121094 386.75 267.121094 C 391.542969 267.121094 394.625 270.886719 394.625 275.679688 L 394.625 385.542969 L 471.972656 385.542969 C 476.765625 385.542969 480.53125 389.308594 480.53125 394.101562 C 480.53125 398.890625 476.765625 401.972656 472.660156 401.972656 Z M 472.660156 401.972656 "/><g clip-rule="nonzero" clip-path="url(#96c5352927)"><path style=" stroke:none;fill-rule:evenodd;fill:#ffffff;fill-opacity:1;" d="M 386.75 647.375 C 246.765625 647.375 133.136719 533.402344 133.136719 394.101562 C 133.136719 268.832031 226.574219 160.335938 350.472656 142.878906 C 365.1875 140.828125 376.140625 140.484375 386.75 140.484375 C 395.992188 140.484375 405.917969 140.828125 416.871094 142.539062 C 544.535156 157.597656 640.710938 265.753906 640.710938 394.441406 C 640.710938 533.402344 526.734375 647.375 386.75 647.375 Z M 386.75 156.570312 C 377.167969 156.570312 366.558594 157.597656 352.867188 158.96875 C 237.183594 175.738281 149.90625 276.703125 149.90625 393.417969 C 149.90625 524.160156 256.007812 630.261719 386.75 630.261719 C 517.496094 630.261719 623.9375 524.160156 623.9375 393.417969 C 623.9375 273.28125 534.265625 172.316406 415.160156 157.941406 C 404.550781 157.253906 395.308594 156.570312 386.75 156.570312 Z M 386.75 156.570312 "/></g><path style=" stroke:none;fill-rule:evenodd;fill:#ffffff;fill-opacity:1;" d="M 567.125 235.976562 C 565.070312 235.976562 562.671875 234.949219 561.304688 233.578125 C 557.882812 230.15625 557.882812 225.023438 561.304688 221.601562 L 587.316406 195.589844 C 590.738281 192.167969 595.875 192.167969 599.296875 195.589844 C 602.71875 199.011719 602.71875 204.144531 599.296875 207.566406 L 573.285156 233.578125 C 571.230469 235.292969 569.519531 235.976562 567.125 235.976562 Z M 549.324219 218.863281 C 547.613281 218.863281 545.21875 217.835938 543.847656 216.46875 C 540.425781 213.042969 540.425781 207.910156 543.847656 204.488281 L 569.859375 178.132812 C 573.285156 174.710938 578.417969 174.710938 581.839844 178.132812 C 584.921875 181.214844 584.921875 186.691406 581.839844 189.769531 L 555.484375 216.125 C 553.773438 217.835938 551.722656 218.863281 549.324219 218.863281 Z M 549.324219 218.863281 "/><path style=" stroke:none;fill-rule:evenodd;fill:#ffffff;fill-opacity:1;" d="M 606.824219 218.519531 C 601.691406 218.519531 596.558594 216.125 593.136719 212.359375 L 564.726562 183.609375 C 560.960938 180.53125 558.910156 175.054688 558.910156 169.917969 C 558.910156 164.785156 560.960938 159.992188 564.726562 156.230469 C 567.808594 152.464844 572.597656 150.410156 578.074219 150.410156 C 583.550781 150.410156 588.34375 152.464844 592.109375 156.230469 L 620.515625 184.636719 C 628.386719 192.851562 627.703125 204.488281 620.515625 211.675781 C 617.4375 216.46875 611.960938 218.519531 606.824219 218.519531 Z M 578.074219 168.207031 C 577.390625 168.207031 577.046875 168.207031 576.363281 168.550781 C 576.363281 168.550781 576.023438 168.890625 576.023438 168.890625 C 575.679688 169.578125 575.679688 170.261719 575.679688 170.261719 C 575.679688 170.261719 575.679688 171.289062 576.023438 171.972656 L 605.113281 200.722656 C 605.796875 201.75 606.484375 201.75 606.824219 201.75 C 607.511719 201.75 607.851562 201.75 608.195312 201.40625 C 609.222656 200.378906 609.222656 198.328125 608.195312 196.957031 L 579.785156 168.550781 C 579.445312 168.207031 578.761719 168.207031 578.074219 168.207031 Z M 578.074219 168.207031 "/><path style=" stroke:none;fill-rule:evenodd;fill:#ffffff;fill-opacity:1;" d="M 371.007812 157.597656 C 366.214844 157.597656 362.449219 153.832031 362.449219 149.042969 L 362.449219 100.097656 C 362.449219 95.304688 366.214844 91.542969 371.007812 91.542969 C 375.800781 91.542969 379.5625 95.304688 379.5625 100.097656 L 379.5625 149.042969 C 378.878906 153.832031 375.800781 157.597656 371.007812 157.597656 Z M 402.835938 157.253906 C 398.046875 157.253906 394.28125 153.492188 394.28125 148.699219 L 394.28125 100.097656 C 394.28125 95.304688 398.046875 91.542969 402.835938 91.542969 C 407.628906 91.542969 411.394531 95.304688 411.394531 100.097656 L 411.394531 148.699219 C 410.710938 153.492188 407.628906 157.253906 402.835938 157.253906 Z M 402.835938 157.253906 "/><g clip-rule="nonzero" clip-path="url(#e0f59559f4)"><path style=" stroke:none;fill-rule:evenodd;fill:#ffffff;fill-opacity:1;" d="M 413.105469 108.65625 L 360.398438 108.65625 C 348.074219 108.65625 337.808594 98.730469 337.808594 86.40625 C 337.808594 74.085938 347.734375 63.476562 360.398438 63.476562 L 413.105469 63.476562 C 425.425781 63.476562 436.035156 73.742188 436.035156 86.40625 C 436.035156 98.730469 426.113281 108.65625 413.105469 108.65625 Z M 360.398438 80.246094 C 357.316406 80.246094 354.238281 82.984375 354.238281 86.40625 C 354.238281 89.828125 357.316406 92.226562 360.398438 92.226562 L 413.105469 92.226562 C 416.527344 92.226562 419.265625 89.828125 419.265625 86.40625 C 419.265625 82.984375 416.527344 80.246094 413.105469 80.246094 Z M 360.398438 80.246094 "/></g></g></svg>