<svg xmlns="http://www.w3.org/2000/svg" xmlns:xlink="http://www.w3.org/1999/xlink" width="1024" zoomAndPan="magnify" viewBox="0 0 768 767.999994" height="1024" preserveAspectRatio="xMidYMid meet" version="1.2"><defs><clipPath id="95e18ee09d"><path d="M 78 79 L 689.953125 79 L 689.953125 691.050781 L 78 691.050781 Z M 78 79 "/></clipPath></defs><g id="fff0609a89"><g clip-rule="nonzero" clip-path="url(#95e18ee09d)"><path style=" stroke:none;fill-rule:nonzero;fill:#ffffff;fill-opacity:1;" d="M 668.613281 413.554688 L 532.398438 413.554688 C 520.804688 413.554688 511.375 422.984375 511.375 434.578125 L 511.375 670.03125 C 511.375 681.625 520.804688 691.054688 532.398438 691.054688 L 668.613281 691.054688 C 680.203125 691.054688 689.636719 681.625 689.636719 670.03125 L 689.636719 434.578125 C 689.636719 422.984375 680.203125 413.554688 668.613281 413.554688 Z M 631.675781 433.277344 L 629.664062 438.710938 L 571.347656 438.710938 L 569.335938 433.277344 Z M 669.914062 670.03125 C 669.914062 670.722656 669.304688 671.332031 668.613281 671.332031 L 532.398438 671.332031 C 531.703125 671.332031 531.097656 670.722656 531.097656 670.03125 L 531.097656 434.578125 C 531.097656 433.882812 531.703125 433.277344 532.398438 433.277344 L 548.308594 433.277344 L 555.230469 451.992188 C 556.660156 455.863281 560.351562 458.433594 564.476562 458.433594 L 636.53125 458.433594 C 640.65625 458.433594 644.347656 455.863281 645.78125 451.992188 L 652.699219 433.277344 L 668.609375 433.277344 C 669.304688 433.277344 669.910156 433.882812 669.910156 434.578125 L 669.910156 670.03125 Z M 621.792969 655.46875 C 621.792969 660.914062 617.378906 665.328125 611.929688 665.328125 L 589.078125 665.328125 C 583.632812 665.328125 579.21875 660.910156 579.21875 655.464844 C 579.21875 650.019531 583.632812 645.605469 589.078125 645.605469 L 611.929688 645.605469 C 617.378906 645.605469 621.792969 650.019531 621.792969 655.46875 Z M 397.871094 601.796875 C 397.691406 601.796875 397.503906 601.796875 397.320312 601.796875 L 311.933594 602.125 C 310.558594 602.125 309.238281 602.070312 307.925781 601.945312 C 308.289062 601.609375 308.648438 601.265625 309.003906 600.910156 C 320.558594 589.355469 320.714844 570.4375 309.355469 557.839844 C 309.058594 557.511719 308.742188 557.203125 308.402344 556.914062 C 292.160156 543.179688 277.917969 526.28125 266.472656 512.699219 C 262.453125 507.929688 258.652344 503.421875 255.316406 499.71875 C 241.148438 484 221.730469 481.878906 204.546875 481.921875 L 144.460938 481.996094 L 144.523438 474.832031 C 144.621094 463.40625 135.402344 454.03125 123.976562 453.929688 L 100.1875 453.726562 C 100.128906 453.726562 100.070312 453.726562 100.007812 453.726562 C 88.664062 453.726562 79.382812 462.90625 79.285156 474.273438 L 78.222656 597.84375 C 78.175781 603.367188 80.289062 608.585938 84.175781 612.539062 C 88.0625 616.492188 93.246094 618.695312 98.769531 618.746094 L 122.554688 618.949219 C 122.617188 618.949219 122.679688 618.949219 122.738281 618.949219 C 128.195312 618.949219 133.34375 616.839844 137.253906 612.996094 C 141.210938 609.109375 143.414062 603.925781 143.460938 598.402344 L 143.542969 588.949219 L 153.332031 588.949219 L 221.542969 657.160156 C 233.300781 668.917969 248.019531 675.097656 264.222656 675.097656 C 264.824219 675.097656 265.429688 675.085938 266.035156 675.070312 L 423.226562 670.617188 C 439.269531 670.164062 453.628906 654.089844 453.351562 636.898438 C 453.21875 628.644531 448.824219 601.796875 397.871094 601.796875 Z M 123.429688 598.929688 C 123.289062 599.066406 123.0625 599.253906 122.726562 599.226562 L 98.9375 599.023438 C 98.609375 599.019531 98.378906 598.851562 98.242188 598.714844 C 98.105469 598.574219 97.941406 598.339844 97.945312 598.011719 L 99.007812 474.445312 C 99.011719 473.921875 99.492188 473.449219 100.011719 473.449219 C 100.011719 473.449219 100.015625 473.449219 100.019531 473.449219 L 123.804688 473.652344 C 124.332031 473.65625 124.804688 474.140625 124.800781 474.664062 L 123.902344 579.082031 C 123.902344 579.085938 123.902344 579.085938 123.902344 579.085938 L 123.738281 598.234375 C 123.734375 598.5625 123.570312 598.792969 123.429688 598.929688 Z M 422.667969 650.902344 L 265.476562 655.355469 C 253.945312 655.683594 243.871094 651.59375 235.488281 643.214844 L 164.390625 572.113281 C 162.539062 570.261719 160.03125 569.222656 157.417969 569.222656 L 143.710938 569.222656 L 144.289062 501.71875 L 204.570312 501.644531 C 222.984375 501.570312 233.421875 504.890625 240.664062 512.921875 C 243.78125 516.382812 247.308594 520.566406 251.390625 525.410156 C 263.183594 539.402344 277.824219 556.773438 295.082031 571.480469 C 299.109375 576.320312 299.128906 582.886719 295.058594 586.960938 C 293.433594 588.585938 288.511719 593.488281 279.609375 586.925781 C 271.472656 579.679688 264.089844 572.058594 256.285156 563.992188 C 252.527344 560.113281 248.644531 556.097656 244.59375 552.046875 C 240.742188 548.195312 234.5 548.195312 230.648438 552.046875 C 226.796875 555.898438 226.796875 562.140625 230.648438 565.992188 C 234.585938 569.929688 238.414062 573.882812 242.113281 577.707031 C 250.304688 586.175781 258.042969 594.171875 266.886719 602.007812 C 266.9375 602.054688 266.992188 602.09375 267.046875 602.136719 C 267.09375 602.179688 267.140625 602.226562 267.191406 602.269531 L 274.398438 608.152344 C 285.738281 617.367188 297.960938 621.84375 311.765625 621.84375 C 311.84375 621.84375 311.925781 621.84375 312.003906 621.84375 L 397.394531 621.515625 C 397.546875 621.515625 397.699219 621.515625 397.851562 621.515625 C 419.777344 621.515625 433.472656 627.515625 433.628906 637.210938 C 433.742188 644.101562 427.546875 650.765625 422.667969 650.902344 Z M 118.648438 491.332031 C 117.140625 495.125 112.84375 496.976562 109.050781 495.46875 C 105.257812 493.960938 103.40625 489.660156 104.914062 485.867188 C 106.421875 482.074219 110.71875 480.222656 114.511719 481.730469 C 118.304688 483.238281 120.160156 487.539062 118.648438 491.332031 Z M 88.082031 314.035156 L 392.085938 314.035156 L 431.457031 353.410156 C 436.847656 358.800781 444.03125 361.765625 451.6875 361.765625 C 459.34375 361.765625 466.527344 358.800781 471.917969 353.410156 L 611.457031 213.875 C 616.84375 208.484375 619.8125 201.300781 619.8125 193.644531 C 619.8125 185.988281 616.84375 178.804688 611.457031 173.417969 L 526.035156 87.996094 C 514.878906 76.84375 496.730469 76.84375 485.578125 87.996094 L 454.558594 119.011719 C 452.855469 117.605469 450.671875 116.761719 448.289062 116.761719 L 88.082031 116.761719 C 82.636719 116.761719 78.222656 121.175781 78.222656 126.621094 L 78.222656 304.175781 C 78.222656 309.621094 82.636719 314.035156 88.082031 314.035156 Z M 368.03125 205.539062 L 339.027344 205.539062 C 333.578125 205.539062 329.164062 209.953125 329.164062 215.398438 C 329.164062 220.847656 333.578125 225.261719 339.027344 225.261719 L 348.308594 225.261719 L 346.039062 227.53125 C 336.25 237.320312 335.054688 252.496094 342.449219 263.605469 L 147.226562 263.605469 C 144.175781 254.253906 136.910156 246.835938 127.726562 243.6875 L 127.726562 187.113281 C 136.910156 183.964844 144.175781 176.546875 147.226562 167.191406 L 389.136719 167.191406 C 390.460938 171.265625 392.59375 175.003906 395.378906 178.191406 Z M 600.085938 193.644531 C 600.085938 196.035156 599.171875 198.265625 597.507812 199.929688 L 457.96875 339.464844 C 456.304688 341.128906 454.074219 342.046875 451.6875 342.046875 C 449.300781 342.046875 447.070312 341.128906 445.40625 339.464844 L 382.214844 276.277344 L 534.316406 124.175781 L 597.507812 187.363281 C 599.171875 189.027344 600.085938 191.257812 600.085938 193.644531 Z M 499.519531 101.941406 C 501.253906 100.210938 503.527344 99.34375 505.800781 99.34375 C 508.078125 99.34375 510.351562 100.210938 512.085938 101.941406 L 520.371094 110.226562 L 368.269531 262.328125 L 359.984375 254.046875 C 356.519531 250.578125 356.519531 244.941406 359.984375 241.480469 Z M 97.945312 136.484375 L 437.085938 136.484375 L 409.421875 164.148438 C 408.082031 162.203125 407.304688 159.84375 407.304688 157.332031 C 407.304688 151.886719 402.890625 147.46875 397.445312 147.46875 L 138.925781 147.46875 C 133.476562 147.46875 129.0625 151.886719 129.0625 157.332031 C 129.0625 163.78125 124.039062 169.027344 117.867188 169.027344 C 112.421875 169.027344 108.003906 173.441406 108.003906 178.890625 L 108.003906 251.910156 C 108.003906 257.355469 112.421875 261.769531 117.867188 261.769531 C 124.039062 261.769531 129.0625 267.019531 129.0625 273.464844 C 129.0625 278.910156 133.476562 283.328125 138.925781 283.328125 L 361.375 283.328125 L 372.359375 294.3125 L 97.945312 294.3125 Z M 207.203125 215.398438 C 207.203125 220.847656 202.785156 225.261719 197.339844 225.261719 L 165.589844 225.261719 C 160.144531 225.261719 155.730469 220.847656 155.730469 215.398438 C 155.730469 209.953125 160.144531 205.539062 165.589844 205.539062 L 197.339844 205.539062 C 202.785156 205.539062 207.203125 209.953125 207.203125 215.398438 Z M 269.832031 205.472656 C 269.089844 205.351562 262.582031 204.222656 262.484375 202.195312 C 262.375 199.964844 265.351562 199.113281 266.265625 198.902344 C 266.929688 198.753906 272.832031 197.578125 275.019531 202.78125 C 277.125 207.804688 282.90625 210.164062 287.929688 208.058594 C 292.949219 205.949219 295.3125 200.167969 293.203125 195.148438 C 290.265625 188.148438 284.738281 183.066406 278.03125 180.601562 C 277.738281 175.417969 273.441406 171.304688 268.183594 171.304688 C 262.886719 171.304688 258.566406 175.480469 258.332031 180.722656 C 248.417969 184.355469 242.289062 192.996094 242.785156 203.152344 C 243.015625 207.96875 244.894531 215.375 253.285156 220.398438 C 251.75 220 250.09375 219.972656 248.441406 220.378906 C 243.15625 221.699219 239.941406 227.050781 241.257812 232.335938 C 243.414062 240.96875 249.820312 247.449219 258.34375 250.277344 C 258.675781 255.421875 262.953125 259.492188 268.183594 259.492188 C 273.347656 259.492188 277.585938 255.519531 278.011719 250.464844 C 283.070312 248.972656 287.460938 246.332031 290.488281 242.828125 C 294.320312 238.398438 295.960938 232.882812 295.234375 226.875 C 294.261719 218.855469 289.0625 208.628906 269.832031 205.472656 Z M 275.660156 229.8125 C 275.351562 230.460938 272.601562 232.027344 268.65625 232.121094 C 267.929688 232.140625 261.542969 232.15625 260.398438 227.566406 C 259.855469 225.398438 258.636719 223.578125 257.023438 222.277344 C 259.707031 223.402344 262.878906 224.320312 266.636719 224.9375 C 272.386719 225.878906 275.421875 227.332031 275.652344 229.25 C 275.695312 229.59375 275.671875 229.777344 275.660156 229.8125 Z M 470.683594 244.796875 C 465.128906 239.246094 456.089844 239.246094 450.535156 244.796875 C 450.535156 244.796875 450.535156 244.796875 450.535156 244.800781 L 427.039062 268.292969 C 421.484375 273.847656 421.484375 282.886719 427.039062 288.445312 L 442.203125 303.609375 C 444.890625 306.296875 448.46875 307.777344 452.28125 307.777344 C 456.09375 307.777344 459.671875 306.296875 462.355469 303.613281 L 485.847656 280.117188 C 488.539062 277.429688 490.019531 273.851562 490.019531 270.042969 C 490.019531 266.234375 488.539062 262.65625 485.851562 259.96875 Z M 452.28125 285.792969 L 444.859375 278.367188 L 460.609375 262.617188 L 468.035156 270.042969 Z M 542.988281 152.347656 C 546.835938 148.496094 553.082031 148.496094 556.933594 152.347656 C 560.78125 156.199219 560.785156 162.441406 556.933594 166.292969 L 507.359375 215.867188 C 505.433594 217.792969 502.910156 218.757812 500.386719 218.757812 C 497.859375 218.757812 495.335938 217.792969 493.410156 215.867188 C 489.558594 212.015625 489.558594 205.773438 493.410156 201.921875 Z M 561.242188 186.816406 C 565.09375 190.667969 565.09375 196.914062 561.242188 200.765625 L 526.75 235.257812 C 524.824219 237.183594 522.300781 238.148438 519.777344 238.148438 C 517.25 238.148438 514.726562 237.183594 512.804688 235.257812 C 508.953125 231.40625 508.953125 225.164062 512.804688 221.3125 L 547.296875 186.816406 C 551.148438 182.96875 557.394531 182.96875 561.242188 186.816406 Z M 600.503906 341.863281 C 582.953125 341.863281 566.398438 349.402344 553.898438 363.085938 C 550.222656 367.105469 543.988281 367.386719 539.964844 363.714844 C 535.945312 360.042969 535.664062 353.804688 539.335938 349.78125 C 555.621094 331.957031 577.34375 322.140625 600.503906 322.140625 C 623.667969 322.140625 645.390625 331.957031 661.675781 349.78125 C 665.347656 353.804688 665.066406 360.042969 661.046875 363.714844 C 659.152344 365.441406 656.769531 366.296875 654.394531 366.296875 C 651.722656 366.296875 649.058594 365.214844 647.113281 363.085938 C 634.613281 349.398438 618.058594 341.863281 600.503906 341.863281 Z M 600.503906 289.390625 C 631.65625 289.390625 660.894531 302.613281 682.832031 326.621094 C 686.507812 330.644531 686.226562 336.878906 682.203125 340.554688 C 680.3125 342.28125 677.929688 343.136719 675.554688 343.136719 C 672.882812 343.136719 670.21875 342.054688 668.273438 339.925781 C 650.117188 320.054688 626.050781 309.113281 600.503906 309.113281 C 574.957031 309.113281 550.890625 320.054688 532.734375 339.925781 C 529.0625 343.945312 522.824219 344.230469 518.804688 340.554688 C 514.78125 336.882812 514.5 330.644531 518.175781 326.621094 C 540.117188 302.613281 569.355469 289.390625 600.503906 289.390625 Z M 640.511719 372.941406 C 644.1875 376.960938 643.90625 383.199219 639.886719 386.875 C 637.992188 388.601562 635.609375 389.457031 633.234375 389.457031 C 630.5625 389.457031 627.898438 388.375 625.953125 386.246094 C 619.101562 378.746094 610.0625 374.617188 600.503906 374.617188 C 590.945312 374.617188 581.90625 378.746094 575.054688 386.246094 C 571.382812 390.265625 565.144531 390.546875 561.125 386.875 C 557.101562 383.203125 556.824219 376.960938 560.496094 372.941406 C 571.128906 361.304688 585.339844 354.894531 600.503906 354.894531 C 615.667969 354.894531 629.878906 361.304688 640.511719 372.941406 Z M 635.335938 569.203125 C 636.238281 576.644531 634.222656 583.457031 629.507812 588.90625 C 625.058594 594.054688 618.222656 597.753906 610.367188 599.4375 L 610.367188 601.6875 C 610.367188 607.132812 605.953125 611.550781 600.503906 611.550781 C 595.058594 611.550781 590.644531 607.132812 590.644531 601.6875 L 590.644531 599.265625 C 578.207031 596.210938 568.738281 587.484375 565.757812 575.519531 C 564.441406 570.234375 567.65625 564.882812 572.941406 563.5625 C 578.226562 562.253906 583.578125 565.464844 584.894531 570.746094 C 586.792969 578.355469 594.910156 580.867188 601.296875 580.726562 C 606.832031 580.597656 612.300781 578.652344 614.589844 576.003906 C 615.328125 575.152344 616.046875 573.957031 615.757812 571.582031 C 615.484375 569.335938 614.84375 564.070312 598.980469 561.46875 C 573.058594 557.210938 568.503906 542.453125 568.09375 534.035156 C 567.429688 520.375 576.425781 508.882812 590.640625 504.953125 L 590.640625 502.351562 C 590.640625 496.90625 595.058594 492.492188 600.503906 492.492188 C 605.949219 492.492188 610.367188 496.90625 610.367188 502.351562 L 610.367188 504.863281 C 619.535156 507.300781 628.109375 513.414062 632.703125 524.359375 C 634.8125 529.378906 632.453125 535.160156 627.429688 537.269531 C 622.40625 539.378906 616.628906 537.015625 614.519531 531.992188 C 610.804688 523.144531 601.59375 522.648438 596.734375 523.75 C 594.554688 524.246094 587.46875 526.382812 587.792969 533.078125 C 587.878906 534.890625 588.113281 539.695312 602.175781 542.003906 C 622.390625 545.324219 633.546875 554.476562 635.335938 569.203125 Z M 493.457031 524.480469 C 493.457031 529.925781 489.039062 534.339844 483.59375 534.339844 L 361.859375 534.339844 C 356.414062 534.339844 352 529.925781 352 524.480469 C 352 519.03125 356.414062 514.617188 361.859375 514.617188 L 483.59375 514.617188 C 489.039062 514.617188 493.457031 519.03125 493.457031 524.480469 Z M 393.09375 350.648438 C 397.8125 353.371094 399.425781 359.40625 396.703125 364.121094 L 335.835938 469.546875 C 334.011719 472.707031 330.695312 474.476562 327.289062 474.476562 C 325.613281 474.476562 323.917969 474.050781 322.367188 473.15625 C 317.648438 470.429688 316.035156 464.398438 318.757812 459.683594 L 379.621094 354.257812 C 382.347656 349.542969 388.378906 347.925781 393.09375 350.648438 Z M 252.863281 337.570312 L 284.371094 455.15625 C 285.78125 460.417969 282.660156 465.824219 277.398438 467.234375 C 276.542969 467.464844 275.683594 467.574219 274.839844 467.574219 C 270.484375 467.574219 266.5 464.667969 265.320312 460.261719 L 233.8125 342.675781 C 232.402344 337.414062 235.523438 332.007812 240.785156 330.597656 C 246.050781 329.191406 251.453125 332.308594 252.863281 337.570312 Z M 252.863281 337.570312 "/></g></g></svg>