<svg xmlns="http://www.w3.org/2000/svg" xmlns:xlink="http://www.w3.org/1999/xlink" width="1024" zoomAndPan="magnify" viewBox="0 0 768 767.999994" height="1024" preserveAspectRatio="xMidYMid meet" version="1.2"><defs><clipPath id="a78dbce1f7"><path d="M 41.675781 117.84375 L 726.425781 117.84375 L 726.425781 650.34375 L 41.675781 650.34375 Z M 41.675781 117.84375 "/></clipPath></defs><g id="03393aa59f"><path style=" stroke:none;fill-rule:nonzero;fill:#ffffff;fill-opacity:1;" d="M 340.695312 567.871094 L 371.390625 567.871094 C 377.65625 567.871094 382.699219 562.828125 382.699219 556.5625 L 382.699219 429.101562 C 382.699219 422.835938 377.65625 417.789062 371.390625 417.789062 L 340.695312 417.789062 C 334.425781 417.789062 329.382812 422.835938 329.382812 429.101562 L 329.382812 556.5625 C 329.382812 562.828125 334.425781 567.871094 340.695312 567.871094 Z M 340.695312 567.871094 "/><path style=" stroke:none;fill-rule:nonzero;fill:#ffffff;fill-opacity:1;" d="M 427.226562 567.871094 L 457.921875 567.871094 C 464.191406 567.871094 469.234375 562.828125 469.234375 556.5625 L 469.234375 339.328125 C 469.234375 333.058594 464.191406 328.015625 457.921875 328.015625 L 427.226562 328.015625 C 420.960938 328.015625 415.917969 333.058594 415.917969 339.328125 L 415.917969 556.5625 C 415.917969 562.828125 420.960938 567.871094 427.226562 567.871094 Z M 427.226562 567.871094 "/><path style=" stroke:none;fill-rule:nonzero;fill:#ffffff;fill-opacity:1;" d="M 600.292969 567.871094 L 630.988281 567.871094 C 637.257812 567.871094 642.300781 562.828125 642.300781 556.5625 L 642.300781 366.921875 C 642.300781 360.65625 637.257812 355.609375 630.988281 355.609375 L 600.292969 355.609375 C 594.027344 355.609375 588.984375 360.65625 588.984375 366.921875 L 588.984375 556.5625 C 588.984375 562.828125 594.097656 567.871094 600.292969 567.871094 Z M 600.292969 567.871094 "/><path style=" stroke:none;fill-rule:nonzero;fill:#ffffff;fill-opacity:1;" d="M 513.761719 567.871094 L 544.457031 567.871094 C 550.722656 567.871094 555.765625 562.828125 555.765625 556.5625 L 555.765625 403.308594 C 555.765625 397.039062 550.722656 391.996094 544.457031 391.996094 L 513.761719 391.996094 C 507.492188 391.996094 502.449219 397.039062 502.449219 403.308594 L 502.449219 556.5625 C 502.449219 562.828125 507.566406 567.871094 513.761719 567.871094 Z M 513.761719 567.871094 "/><path style=" stroke:none;fill-rule:nonzero;fill:#ffffff;fill-opacity:1;" d="M 187.945312 416.421875 L 262.304688 416.421875 C 267.5625 416.421875 271.8125 412.171875 271.8125 406.910156 C 271.8125 401.652344 267.5625 397.398438 262.304688 397.398438 L 187.945312 397.398438 C 182.6875 397.398438 178.4375 401.652344 178.4375 406.910156 C 178.4375 412.171875 182.6875 416.421875 187.945312 416.421875 Z M 187.945312 416.421875 "/><path style=" stroke:none;fill-rule:nonzero;fill:#ffffff;fill-opacity:1;" d="M 142.988281 424.203125 C 152.570312 424.203125 160.28125 416.492188 160.28125 406.910156 C 160.28125 397.328125 152.570312 389.617188 142.988281 389.617188 C 133.40625 389.617188 125.695312 397.328125 125.695312 406.910156 C 125.695312 416.492188 133.40625 424.203125 142.988281 424.203125 Z M 142.988281 424.203125 "/><path style=" stroke:none;fill-rule:nonzero;fill:#ffffff;fill-opacity:1;" d="M 187.945312 344.585938 L 262.304688 344.585938 C 267.5625 344.585938 271.8125 340.335938 271.8125 335.078125 C 271.8125 329.816406 267.5625 325.566406 262.304688 325.566406 L 187.945312 325.566406 C 182.6875 325.566406 178.4375 329.816406 178.4375 335.078125 C 178.4375 340.335938 182.6875 344.585938 187.945312 344.585938 Z M 187.945312 344.585938 "/><path style=" stroke:none;fill-rule:nonzero;fill:#ffffff;fill-opacity:1;" d="M 142.988281 352.367188 C 152.570312 352.367188 160.28125 344.660156 160.28125 335.078125 C 160.28125 325.492188 152.570312 317.785156 142.988281 317.785156 C 133.40625 317.785156 125.695312 325.492188 125.695312 335.078125 C 125.695312 344.660156 133.40625 352.367188 142.988281 352.367188 Z M 142.988281 352.367188 "/><path style=" stroke:none;fill-rule:nonzero;fill:#ffffff;fill-opacity:1;" d="M 187.945312 488.257812 L 262.304688 488.257812 C 267.5625 488.257812 271.8125 484.003906 271.8125 478.746094 C 271.8125 473.484375 267.5625 469.234375 262.304688 469.234375 L 187.945312 469.234375 C 182.6875 469.234375 178.4375 473.484375 178.4375 478.746094 C 178.4375 484.003906 182.6875 488.257812 187.945312 488.257812 Z M 187.945312 488.257812 "/><path style=" stroke:none;fill-rule:nonzero;fill:#ffffff;fill-opacity:1;" d="M 160.28125 478.746094 C 160.28125 479.3125 160.25 479.878906 160.195312 480.441406 C 160.140625 481.003906 160.058594 481.5625 159.945312 482.121094 C 159.835938 482.675781 159.699219 483.222656 159.535156 483.765625 C 159.371094 484.308594 159.179688 484.839844 158.964844 485.363281 C 158.746094 485.886719 158.503906 486.398438 158.238281 486.898438 C 157.96875 487.398438 157.679688 487.882812 157.363281 488.351562 C 157.050781 488.824219 156.714844 489.277344 156.355469 489.714844 C 155.996094 490.152344 155.613281 490.574219 155.214844 490.972656 C 154.8125 491.375 154.394531 491.753906 153.957031 492.113281 C 153.519531 492.472656 153.066406 492.808594 152.59375 493.125 C 152.125 493.4375 151.636719 493.730469 151.140625 493.996094 C 150.640625 494.261719 150.128906 494.503906 149.605469 494.722656 C 149.082031 494.9375 148.546875 495.128906 148.007812 495.292969 C 147.464844 495.457031 146.917969 495.59375 146.359375 495.707031 C 145.804688 495.816406 145.246094 495.898438 144.683594 495.953125 C 144.117188 496.011719 143.554688 496.039062 142.988281 496.039062 C 142.421875 496.039062 141.855469 496.011719 141.292969 495.953125 C 140.730469 495.898438 140.167969 495.816406 139.613281 495.707031 C 139.058594 495.59375 138.507812 495.457031 137.96875 495.292969 C 137.425781 495.128906 136.894531 494.9375 136.371094 494.722656 C 135.847656 494.503906 135.335938 494.261719 134.835938 493.996094 C 134.335938 493.730469 133.851562 493.4375 133.378906 493.125 C 132.910156 492.808594 132.453125 492.472656 132.015625 492.113281 C 131.578125 491.753906 131.160156 491.375 130.757812 490.972656 C 130.359375 490.574219 129.980469 490.152344 129.621094 489.714844 C 129.261719 489.277344 128.925781 488.824219 128.609375 488.351562 C 128.292969 487.882812 128.003906 487.398438 127.738281 486.898438 C 127.46875 486.398438 127.226562 485.886719 127.011719 485.363281 C 126.792969 484.839844 126.605469 484.308594 126.441406 483.765625 C 126.273438 483.222656 126.136719 482.675781 126.027344 482.121094 C 125.917969 481.5625 125.832031 481.003906 125.777344 480.441406 C 125.722656 479.878906 125.695312 479.3125 125.695312 478.746094 C 125.695312 478.179688 125.722656 477.613281 125.777344 477.050781 C 125.832031 476.488281 125.917969 475.929688 126.027344 475.371094 C 126.136719 474.816406 126.273438 474.269531 126.441406 473.726562 C 126.605469 473.183594 126.792969 472.652344 127.011719 472.128906 C 127.226562 471.605469 127.46875 471.09375 127.738281 470.59375 C 128.003906 470.09375 128.292969 469.609375 128.609375 469.140625 C 128.925781 468.667969 129.261719 468.214844 129.621094 467.777344 C 129.980469 467.339844 130.359375 466.917969 130.757812 466.519531 C 131.160156 466.117188 131.578125 465.738281 132.015625 465.378906 C 132.453125 465.019531 132.910156 464.683594 133.378906 464.367188 C 133.851562 464.054688 134.335938 463.761719 134.835938 463.496094 C 135.335938 463.226562 135.847656 462.988281 136.371094 462.769531 C 136.894531 462.554688 137.425781 462.363281 137.96875 462.199219 C 138.507812 462.035156 139.058594 461.894531 139.613281 461.785156 C 140.167969 461.675781 140.730469 461.59375 141.292969 461.535156 C 141.855469 461.480469 142.421875 461.453125 142.988281 461.453125 C 143.554688 461.453125 144.117188 461.480469 144.683594 461.535156 C 145.246094 461.59375 145.804688 461.675781 146.359375 461.785156 C 146.917969 461.894531 147.464844 462.035156 148.007812 462.199219 C 148.546875 462.363281 149.082031 462.554688 149.605469 462.769531 C 150.128906 462.988281 150.640625 463.226562 151.140625 463.496094 C 151.636719 463.761719 152.125 464.054688 152.59375 464.367188 C 153.066406 464.683594 153.519531 465.019531 153.957031 465.378906 C 154.394531 465.738281 154.8125 466.117188 155.214844 466.519531 C 155.613281 466.917969 155.996094 467.339844 156.355469 467.777344 C 156.714844 468.214844 157.050781 468.667969 157.363281 469.140625 C 157.679688 469.609375 157.96875 470.09375 158.238281 470.59375 C 158.503906 471.09375 158.746094 471.605469 158.964844 472.128906 C 159.179688 472.652344 159.371094 473.183594 159.535156 473.726562 C 159.699219 474.269531 159.835938 474.816406 159.945312 475.371094 C 160.058594 475.929688 160.140625 476.488281 160.195312 477.050781 C 160.25 477.613281 160.28125 478.179688 160.28125 478.746094 Z M 160.28125 478.746094 "/><path style=" stroke:none;fill-rule:nonzero;fill:#ffffff;fill-opacity:1;" d="M 187.945312 560.089844 L 262.304688 560.089844 C 267.5625 560.089844 271.8125 555.839844 271.8125 550.582031 C 271.8125 545.320312 267.5625 541.070312 262.304688 541.070312 L 187.945312 541.070312 C 182.6875 541.070312 178.4375 545.320312 178.4375 550.582031 C 178.4375 555.839844 182.6875 560.089844 187.945312 560.089844 Z M 187.945312 560.089844 "/><path style=" stroke:none;fill-rule:nonzero;fill:#ffffff;fill-opacity:1;" d="M 142.988281 567.871094 C 152.570312 567.871094 160.28125 560.164062 160.28125 550.582031 C 160.28125 540.996094 152.570312 533.289062 142.988281 533.289062 C 133.40625 533.289062 125.695312 540.996094 125.695312 550.582031 C 125.695312 560.164062 133.40625 567.871094 142.988281 567.871094 Z M 142.988281 567.871094 "/><g clip-rule="nonzero" clip-path="url(#a78dbce1f7)"><path style=" stroke:none;fill-rule:nonzero;fill:#ffffff;fill-opacity:1;" d="M 659.449219 117.84375 L 108.546875 117.84375 C 71.730469 117.84375 41.753906 147.816406 41.753906 184.632812 L 41.753906 583.363281 C 41.753906 620.183594 71.730469 650.15625 108.546875 650.15625 L 659.449219 650.15625 C 696.265625 650.15625 726.238281 620.183594 726.238281 583.363281 L 726.238281 184.632812 C 726.238281 147.816406 696.265625 117.84375 659.449219 117.84375 Z M 487.894531 177.140625 L 655.628906 177.140625 C 661.824219 177.140625 666.871094 182.183594 666.871094 188.378906 C 666.871094 194.578125 661.824219 199.621094 655.628906 199.621094 L 487.894531 199.621094 C 481.699219 199.621094 476.65625 194.578125 476.65625 188.378906 C 476.65625 182.183594 481.699219 177.140625 487.894531 177.140625 Z M 227.214844 169.503906 C 237.589844 169.503906 246.019531 177.933594 246.019531 188.308594 C 246.019531 198.683594 237.589844 207.113281 227.214844 207.113281 C 216.839844 207.113281 208.410156 198.683594 208.410156 188.308594 C 208.410156 177.933594 216.839844 169.503906 227.214844 169.503906 Z M 172.097656 169.503906 C 182.472656 169.503906 190.902344 177.933594 190.902344 188.308594 C 190.902344 198.683594 182.472656 207.113281 172.097656 207.113281 C 161.71875 207.113281 153.289062 198.683594 153.289062 188.308594 C 153.289062 177.933594 161.71875 169.503906 172.097656 169.503906 Z M 116.976562 169.503906 C 127.351562 169.503906 135.78125 177.933594 135.78125 188.308594 C 135.78125 198.683594 127.351562 207.113281 116.976562 207.113281 C 106.601562 207.113281 98.171875 198.683594 98.171875 188.308594 C 98.171875 177.933594 106.601562 169.503906 116.976562 169.503906 Z M 703.761719 583.363281 C 703.761719 607.789062 683.875 627.675781 659.449219 627.675781 L 108.546875 627.675781 C 84.121094 627.675781 64.234375 607.789062 64.234375 583.363281 L 64.234375 258.847656 L 703.761719 258.847656 Z M 703.761719 583.363281 "/></g></g></svg>