<svg xmlns="http://www.w3.org/2000/svg" xmlns:xlink="http://www.w3.org/1999/xlink" width="60" zoomAndPan="magnify" viewBox="0 0 45 44.999999" height="60" preserveAspectRatio="xMidYMid meet" version="1.0"><path fill="#ffffff" d="M 15.621094 33.460938 C 15.535156 33.617188 15.402344 33.667969 15.273438 33.667969 C 15.148438 33.667969 15.023438 33.617188 14.933594 33.460938 L 14.027344 31.753906 L 14.027344 35.214844 C 14.027344 35.429688 13.765625 35.539062 13.511719 35.539062 C 13.25 35.539062 13 35.429688 13 35.214844 L 13 30.277344 C 13 29.898438 13.25 29.761719 13.511719 29.761719 C 13.882812 29.761719 14.050781 29.84375 14.3125 30.308594 L 15.28125 32.078125 L 16.253906 30.308594 C 16.515625 29.84375 16.6875 29.761719 17.058594 29.761719 C 17.320312 29.761719 17.574219 29.898438 17.574219 30.277344 L 17.574219 35.214844 C 17.574219 35.429688 17.3125 35.539062 17.058594 35.539062 C 16.800781 35.539062 16.546875 35.429688 16.546875 35.214844 L 16.546875 31.816406 Z M 15.621094 33.460938 " fill-opacity="1" fill-rule="nonzero"/><path fill="#ffffff" d="M 20.433594 32.242188 L 21.632812 32.242188 C 21.839844 32.242188 21.957031 32.441406 21.957031 32.65625 C 21.957031 32.835938 21.855469 33.050781 21.632812 33.050781 L 20.433594 33.050781 L 20.433594 34.636719 L 22.667969 34.636719 C 22.875 34.636719 22.992188 34.851562 22.992188 35.097656 C 22.992188 35.308594 22.890625 35.539062 22.667969 35.539062 L 19.855469 35.539062 C 19.628906 35.539062 19.40625 35.429688 19.40625 35.214844 L 19.40625 30.085938 C 19.40625 29.875 19.628906 29.761719 19.855469 29.761719 L 22.667969 29.761719 C 22.890625 29.761719 22.992188 29.992188 22.992188 30.207031 C 22.992188 30.449219 22.875 30.664062 22.667969 30.664062 L 20.433594 30.664062 Z M 20.433594 32.242188 " fill-opacity="1" fill-rule="nonzero"/><path fill="#ffffff" d="M 27.203125 35.214844 L 25.503906 32.039062 L 25.503906 35.214844 C 25.503906 35.429688 25.246094 35.539062 24.992188 35.539062 C 24.730469 35.539062 24.476562 35.429688 24.476562 35.214844 L 24.476562 30.085938 C 24.476562 29.867188 24.730469 29.761719 24.992188 29.761719 C 25.363281 29.761719 25.511719 29.84375 25.757812 30.308594 L 27.28125 33.253906 L 27.28125 30.078125 C 27.28125 29.859375 27.535156 29.761719 27.796875 29.761719 C 28.050781 29.761719 28.308594 29.859375 28.308594 30.078125 L 28.308594 35.214844 C 28.308594 35.429688 28.050781 35.539062 27.796875 35.539062 C 27.550781 35.539062 27.339844 35.460938 27.203125 35.214844 Z M 27.203125 35.214844 " fill-opacity="1" fill-rule="nonzero"/><path fill="#ffffff" d="M 32.882812 30.078125 C 32.882812 29.859375 33.136719 29.761719 33.398438 29.761719 C 33.652344 29.761719 33.910156 29.859375 33.910156 30.078125 L 33.910156 33.777344 C 33.910156 35.097656 33.074219 35.585938 32.015625 35.585938 C 30.949219 35.585938 30.117188 35.097656 30.117188 33.777344 L 30.117188 30.078125 C 30.117188 29.859375 30.371094 29.761719 30.632812 29.761719 C 30.886719 29.761719 31.144531 29.859375 31.144531 30.078125 L 31.144531 33.777344 C 31.144531 34.394531 31.46875 34.683594 32.015625 34.683594 C 32.558594 34.683594 32.882812 34.394531 32.882812 33.777344 Z M 32.882812 30.078125 " fill-opacity="1" fill-rule="nonzero"/><path fill="#ffffff" d="M 34.914062 37.101562 L 31.160156 37.101562 C 30.789062 37.101562 30.492188 37.402344 30.492188 37.769531 C 30.492188 38.136719 30.789062 38.4375 31.160156 38.4375 L 34.914062 38.4375 C 35.285156 38.4375 35.582031 38.136719 35.582031 37.769531 C 35.582031 37.402344 35.285156 37.101562 34.914062 37.101562 Z M 34.914062 37.101562 " fill-opacity="1" fill-rule="nonzero"/><path fill="#ffffff" d="M 28.054688 37.101562 L 12.855469 37.101562 C 12.488281 37.101562 12.1875 37.402344 12.1875 37.769531 C 12.1875 38.136719 12.488281 38.4375 12.855469 38.4375 L 28.054688 38.4375 C 28.425781 38.4375 28.722656 38.136719 28.722656 37.769531 C 28.722656 37.402344 28.425781 37.101562 28.054688 37.101562 Z M 28.054688 37.101562 " fill-opacity="1" fill-rule="nonzero"/><path fill="#ffffff" d="M 34.914062 26.914062 L 12.855469 26.914062 C 12.488281 26.914062 12.1875 27.214844 12.1875 27.582031 C 12.1875 27.953125 12.488281 28.25 12.855469 28.25 L 34.914062 28.25 C 35.285156 28.25 35.582031 27.953125 35.582031 27.582031 C 35.582031 27.214844 35.285156 26.914062 34.914062 26.914062 Z M 34.914062 26.914062 " fill-opacity="1" fill-rule="nonzero"/><path fill="#ffffff" d="M 34.542969 18.644531 L 33.898438 18.644531 C 33.648438 14.046875 30.285156 10.265625 25.890625 9.371094 L 26.019531 8.136719 C 26.058594 7.738281 25.929688 7.335938 25.660156 7.035156 C 25.386719 6.734375 25 6.5625 24.597656 6.5625 L 23.171875 6.5625 C 22.769531 6.5625 22.382812 6.734375 22.113281 7.035156 C 21.84375 7.335938 21.710938 7.738281 21.753906 8.136719 L 21.882812 9.371094 C 17.484375 10.265625 14.125 14.046875 13.875 18.644531 L 13.226562 18.644531 C 12.652344 18.644531 12.1875 19.109375 12.1875 19.683594 L 12.1875 21.058594 C 12.1875 21.632812 12.652344 22.097656 13.226562 22.097656 L 34.542969 22.097656 C 35.117188 22.097656 35.582031 21.632812 35.582031 21.058594 L 35.582031 19.683594 C 35.582031 19.109375 35.117188 18.644531 34.542969 18.644531 Z M 23.105469 7.925781 C 23.121094 7.90625 23.144531 7.898438 23.171875 7.898438 L 24.597656 7.898438 C 24.625 7.898438 24.648438 7.90625 24.667969 7.925781 C 24.6875 7.949219 24.695312 7.972656 24.691406 8 L 24.566406 9.191406 C 24.339844 9.175781 24.113281 9.167969 23.886719 9.167969 C 23.65625 9.167969 23.429688 9.175781 23.207031 9.191406 L 23.082031 8 C 23.078125 7.972656 23.085938 7.949219 23.105469 7.925781 Z M 34.25 20.761719 L 13.523438 20.761719 L 13.523438 19.976562 L 16.335938 19.976562 C 16.703125 19.976562 17 19.679688 17 19.3125 C 17 18.941406 16.703125 18.644531 16.335938 18.644531 L 15.210938 18.644531 C 15.496094 14.105469 19.277344 10.503906 23.886719 10.503906 C 28.492188 10.503906 32.273438 14.105469 32.558594 18.644531 L 19.4375 18.644531 C 19.070312 18.644531 18.773438 18.941406 18.773438 19.3125 C 18.773438 19.679688 19.070312 19.976562 19.4375 19.976562 L 34.25 19.976562 Z M 34.25 20.761719 " fill-opacity="1" fill-rule="nonzero"/><path fill="#ffffff" d="M 39.679688 0 L 8.089844 0 C 7.152344 0 6.390625 0.761719 6.390625 1.699219 L 6.390625 2.902344 L 5.769531 2.902344 C 4.625 2.902344 3.691406 3.835938 3.691406 4.980469 C 3.691406 6.125 4.625 7.058594 5.769531 7.058594 L 6.390625 7.058594 L 6.390625 9.910156 L 5.769531 9.910156 C 4.625 9.910156 3.691406 10.84375 3.691406 11.988281 C 3.691406 13.132812 4.625 14.066406 5.769531 14.066406 L 6.390625 14.066406 L 6.390625 16.917969 L 5.769531 16.917969 C 4.625 16.917969 3.691406 17.851562 3.691406 18.996094 C 3.691406 20.140625 4.625 21.074219 5.769531 21.074219 L 6.390625 21.074219 L 6.390625 23.925781 L 5.769531 23.925781 C 4.625 23.925781 3.691406 24.859375 3.691406 26.003906 C 3.691406 27.148438 4.625 28.082031 5.769531 28.082031 L 6.390625 28.082031 L 6.390625 30.933594 L 5.769531 30.933594 C 4.625 30.933594 3.691406 31.867188 3.691406 33.011719 C 3.691406 34.15625 4.625 35.089844 5.769531 35.089844 L 6.390625 35.089844 L 6.390625 37.941406 L 5.769531 37.941406 C 4.625 37.941406 3.691406 38.875 3.691406 40.019531 C 3.691406 41.164062 4.625 42.097656 5.769531 42.097656 L 6.390625 42.097656 L 6.390625 43.300781 C 6.390625 44.238281 7.152344 45 8.089844 45 L 39.679688 45 C 40.617188 45 41.378906 44.238281 41.378906 43.300781 L 41.378906 1.699219 C 41.378906 0.761719 40.617188 0 39.679688 0 Z M 6.390625 5.722656 L 5.769531 5.722656 C 5.359375 5.722656 5.027344 5.390625 5.027344 4.980469 C 5.027344 4.570312 5.359375 4.238281 5.769531 4.238281 L 6.390625 4.238281 Z M 6.390625 12.730469 L 5.769531 12.730469 C 5.359375 12.730469 5.027344 12.398438 5.027344 11.988281 C 5.027344 11.578125 5.359375 11.246094 5.769531 11.246094 L 6.390625 11.246094 Z M 6.390625 19.738281 L 5.769531 19.738281 C 5.359375 19.738281 5.027344 19.40625 5.027344 18.996094 C 5.027344 18.585938 5.359375 18.253906 5.769531 18.253906 L 6.390625 18.253906 Z M 6.390625 26.746094 L 5.769531 26.746094 C 5.359375 26.746094 5.027344 26.414062 5.027344 26.003906 C 5.027344 25.59375 5.359375 25.261719 5.769531 25.261719 L 6.390625 25.261719 Z M 6.390625 33.753906 L 5.769531 33.753906 C 5.359375 33.753906 5.027344 33.421875 5.027344 33.011719 C 5.027344 32.601562 5.359375 32.269531 5.769531 32.269531 L 6.390625 32.269531 Z M 6.390625 40.761719 L 5.769531 40.761719 C 5.359375 40.761719 5.027344 40.429688 5.027344 40.019531 C 5.027344 39.609375 5.359375 39.277344 5.769531 39.277344 L 6.390625 39.277344 Z M 40.046875 43.300781 C 40.046875 43.503906 39.882812 43.664062 39.679688 43.664062 L 8.089844 43.664062 C 7.886719 43.664062 7.726562 43.503906 7.726562 43.300781 L 7.726562 1.699219 C 7.726562 1.496094 7.886719 1.335938 8.089844 1.335938 L 39.679688 1.335938 C 39.882812 1.335938 40.046875 1.496094 40.046875 1.699219 Z M 40.046875 43.300781 " fill-opacity="1" fill-rule="nonzero"/></svg>