<svg xmlns="http://www.w3.org/2000/svg" xmlns:xlink="http://www.w3.org/1999/xlink" width="1024" zoomAndPan="magnify" viewBox="0 0 768 767.999994" height="1024" preserveAspectRatio="xMidYMid meet" version="1.2"><defs><clipPath id="69418edcd3"><path d="M 12.277344 189.621094 L 134 189.621094 L 134 306 L 12.277344 306 Z M 12.277344 189.621094 "/></clipPath><clipPath id="5998ca9ae9"><path d="M 166 189.621094 L 288 189.621094 L 288 306 L 166 306 Z M 166 189.621094 "/></clipPath><clipPath id="37ea4f3d84"><path d="M 320 189.621094 L 442 189.621094 L 442 306 L 320 306 Z M 320 189.621094 "/></clipPath><clipPath id="5adb4d6e35"><path d="M 474 189.621094 L 596 189.621094 L 596 306 L 474 306 Z M 474 189.621094 "/></clipPath><clipPath id="2a0cbe76f4"><path d="M 628 189.621094 L 750 189.621094 L 750 306 L 628 306 Z M 628 189.621094 "/></clipPath></defs><g id="cb2f3533fe"><path style=" stroke:none;fill-rule:nonzero;fill:#ffffff;fill-opacity:1;" d="M 248.515625 468.824219 L 248.515625 501.53125 C 248.515625 502.738281 249.164062 503.851562 250.199219 504.457031 L 376.371094 577.296875 C 377.421875 577.898438 378.707031 577.898438 379.757812 577.296875 L 505.929688 504.457031 C 506.980469 503.851562 507.617188 502.738281 507.617188 501.53125 L 507.617188 468.824219 C 507.617188 466.226562 504.800781 464.601562 502.542969 465.902344 L 379.757812 536.792969 C 378.707031 537.394531 377.421875 537.394531 376.371094 536.792969 L 253.589844 465.902344 C 251.328125 464.585938 248.515625 466.210938 248.515625 468.824219 Z M 248.515625 468.824219 "/><path style=" stroke:none;fill-rule:nonzero;fill:#ffffff;fill-opacity:1;" d="M 77.722656 293.6875 L 46.515625 310.085938 C 44.117188 311.355469 41.304688 309.3125 41.765625 306.636719 L 47.722656 271.886719 C 47.910156 270.820312 47.554688 269.738281 46.78125 268.996094 L 21.53125 244.378906 C 19.582031 242.492188 20.664062 239.179688 23.339844 238.792969 L 58.230469 233.71875 C 59.296875 233.5625 60.210938 232.898438 60.6875 231.925781 L 76.300781 200.316406 C 77.507812 197.886719 80.972656 197.886719 82.164062 200.316406 L 97.757812 231.925781 C 98.238281 232.882812 99.152344 233.5625 100.21875 233.71875 L 135.105469 238.792969 C 137.800781 239.179688 138.867188 242.476562 136.917969 244.378906 L 111.667969 268.996094 C 110.894531 269.753906 110.539062 270.835938 110.722656 271.886719 L 116.679688 306.636719 C 117.144531 309.3125 114.328125 311.355469 111.929688 310.085938 L 80.726562 293.6875 C 79.828125 293.191406 78.683594 293.191406 77.722656 293.6875 Z M 77.722656 293.6875 "/><path style=" stroke:none;fill-rule:nonzero;fill:#ffffff;fill-opacity:1;" d="M 231.804688 293.6875 L 200.597656 310.085938 C 198.199219 311.355469 195.382812 309.3125 195.847656 306.636719 L 201.804688 271.886719 C 201.992188 270.820312 201.636719 269.738281 200.859375 268.996094 L 175.613281 244.378906 C 173.664062 242.492188 174.746094 239.179688 177.421875 238.792969 L 212.308594 233.71875 C 213.378906 233.5625 214.289062 232.898438 214.769531 231.925781 L 230.367188 200.316406 C 231.574219 197.886719 235.039062 197.886719 236.230469 200.316406 L 251.824219 231.925781 C 252.304688 232.882812 253.21875 233.5625 254.285156 233.71875 L 289.171875 238.792969 C 291.847656 239.179688 292.933594 242.476562 290.984375 244.378906 L 265.734375 268.996094 C 264.960938 269.753906 264.605469 270.835938 264.789062 271.886719 L 270.746094 306.636719 C 271.210938 309.3125 268.394531 311.355469 265.996094 310.085938 L 234.789062 293.6875 C 233.910156 293.191406 232.761719 293.191406 231.804688 293.6875 Z M 231.804688 293.6875 "/><path style=" stroke:none;fill-rule:nonzero;fill:#ffffff;fill-opacity:1;" d="M 385.886719 293.6875 L 354.679688 310.085938 C 352.28125 311.355469 349.464844 309.3125 349.929688 306.636719 L 355.886719 271.886719 C 356.070312 270.820312 355.714844 269.738281 354.941406 268.996094 L 329.691406 244.378906 C 327.742188 242.492188 328.828125 239.179688 331.503906 238.792969 L 366.390625 233.71875 C 367.460938 233.5625 368.371094 232.898438 368.851562 231.925781 L 384.460938 200.316406 C 385.667969 197.886719 389.132812 197.886719 390.324219 200.316406 L 405.9375 231.925781 C 406.417969 232.882812 407.328125 233.5625 408.398438 233.71875 L 443.285156 238.792969 C 445.976562 239.179688 447.042969 242.476562 445.09375 244.378906 L 419.847656 268.996094 C 419.070312 269.753906 418.714844 270.835938 418.902344 271.886719 L 424.859375 306.636719 C 425.324219 309.3125 422.507812 311.355469 420.109375 310.085938 L 388.902344 293.6875 C 387.988281 293.191406 386.84375 293.191406 385.886719 293.6875 Z M 385.886719 293.6875 "/><path style=" stroke:none;fill-rule:nonzero;fill:#ffffff;fill-opacity:1;" d="M 539.96875 293.6875 L 508.761719 310.101562 C 506.363281 311.371094 503.546875 309.328125 504.011719 306.652344 L 509.96875 271.902344 C 510.152344 270.835938 509.796875 269.753906 509.023438 269.007812 L 483.773438 244.394531 C 481.824219 242.507812 482.90625 239.195312 485.585938 238.808594 L 520.472656 233.734375 C 521.539062 233.578125 522.453125 232.914062 522.933594 231.941406 L 538.542969 200.332031 C 539.75 197.902344 543.214844 197.902344 544.40625 200.332031 L 560.019531 231.941406 C 560.496094 232.898438 561.410156 233.578125 562.476562 233.734375 L 597.367188 238.808594 C 600.058594 239.195312 601.125 242.492188 599.175781 244.394531 L 573.925781 269.007812 C 573.152344 269.769531 572.796875 270.851562 572.984375 271.902344 L 578.941406 306.652344 C 579.402344 309.328125 576.589844 311.371094 574.191406 310.101562 L 542.984375 293.703125 C 542.070312 293.191406 540.925781 293.191406 539.96875 293.6875 Z M 539.96875 293.6875 "/><path style=" stroke:none;fill-rule:nonzero;fill:#ffffff;fill-opacity:1;" d="M 694.046875 293.6875 L 662.84375 310.085938 C 660.445312 311.355469 657.628906 309.3125 658.09375 306.636719 L 664.050781 271.886719 C 664.234375 270.820312 663.878906 269.738281 663.105469 268.996094 L 637.855469 244.378906 C 635.90625 242.492188 636.988281 239.179688 639.664062 238.792969 L 674.554688 233.71875 C 675.621094 233.5625 676.535156 232.898438 677.015625 231.925781 L 692.609375 200.316406 C 693.816406 197.886719 697.28125 197.886719 698.472656 200.316406 L 714.070312 231.925781 C 714.546875 232.882812 715.460938 233.5625 716.527344 233.71875 L 751.417969 238.792969 C 754.09375 239.179688 755.175781 242.476562 753.226562 244.378906 L 727.976562 268.996094 C 727.203125 269.753906 726.847656 270.835938 727.035156 271.886719 L 732.988281 306.636719 C 733.453125 309.3125 730.636719 311.355469 728.242188 310.085938 L 697.035156 293.6875 C 696.152344 293.191406 695.007812 293.191406 694.046875 293.6875 Z M 694.046875 293.6875 "/><path style=" stroke:none;fill-rule:nonzero;fill:#ffffff;fill-opacity:1;" d="M 109.363281 370.90625 C 109.363281 381.242188 102.800781 389.921875 93.132812 393.371094 L 107.132812 415.277344 L 107.132812 423.277344 L 90.238281 423.277344 L 74.226562 396.480469 L 58.878906 396.480469 L 58.878906 423.277344 L 38.980469 423.277344 L 38.980469 344.015625 L 77.894531 344.015625 C 96.460938 344 109.363281 355 109.363281 370.90625 Z M 58.878906 382.804688 L 74.441406 382.804688 C 83 382.804688 89.558594 378.128906 89.558594 370.90625 C 89.558594 363.230469 83 358.792969 74.441406 358.792969 L 58.878906 358.792969 Z M 58.878906 382.804688 "/><path style=" stroke:none;fill-rule:nonzero;fill:#ffffff;fill-opacity:1;" d="M 122.914062 423.261719 L 122.914062 344 L 178.722656 344 L 178.722656 359.90625 L 142.039062 359.90625 L 142.039062 375.808594 L 174.28125 375.808594 L 174.28125 389.59375 L 142.039062 389.59375 L 142.039062 407.386719 L 179.835938 407.386719 L 179.835938 423.292969 L 122.914062 423.292969 Z M 122.914062 423.261719 "/><path style=" stroke:none;fill-rule:nonzero;fill:#ffffff;fill-opacity:1;" d="M 263.660156 344 L 263.660156 354.785156 L 240.871094 423.261719 L 210.515625 423.261719 L 187.617188 354.785156 L 187.617188 344 L 205.070312 344 L 225.632812 408.378906 L 246.191406 344 Z M 263.660156 344 "/><path style=" stroke:none;fill-rule:nonzero;fill:#ffffff;fill-opacity:1;" d="M 275.558594 344 L 295.453125 344 L 295.453125 423.261719 L 275.558594 423.261719 Z M 275.558594 344 "/><path style=" stroke:none;fill-rule:nonzero;fill:#ffffff;fill-opacity:1;" d="M 312.582031 423.261719 L 312.582031 344 L 368.386719 344 L 368.386719 359.90625 L 331.703125 359.90625 L 331.703125 375.808594 L 363.945312 375.808594 L 363.945312 389.59375 L 331.703125 389.59375 L 331.703125 407.386719 L 369.5 407.386719 L 369.5 423.292969 L 312.582031 423.292969 Z M 312.582031 423.261719 "/><path style=" stroke:none;fill-rule:nonzero;fill:#ffffff;fill-opacity:1;" d="M 508.25 354.785156 L 486.234375 423.261719 L 459.328125 423.261719 L 443.207031 370.671875 L 427.085938 423.261719 L 400.179688 423.261719 L 378.058594 354.785156 L 378.058594 344 L 394.953125 344 L 414.632812 404.925781 L 433.753906 344 L 452.539062 344 L 471.769531 404.925781 L 491.449219 344 L 508.234375 344 L 508.234375 354.785156 Z M 508.25 354.785156 "/><path style=" stroke:none;fill-rule:nonzero;fill:#ffffff;fill-opacity:1;" d="M 624.984375 344 L 624.984375 390.351562 C 624.984375 411.472656 610.300781 426.046875 589.074219 426.046875 C 567.847656 426.046875 553.164062 411.488281 553.164062 390.351562 L 553.164062 344 L 573.0625 344 L 573.0625 389.6875 C 573.0625 399.464844 578.847656 408.8125 589.074219 409.027344 C 598.742188 409.027344 605.195312 400.90625 605.195312 389.6875 L 605.195312 344 Z M 624.984375 344 "/><path style=" stroke:none;fill-rule:nonzero;fill:#ffffff;fill-opacity:1;" d="M 637.761719 408.703125 L 637.761719 400.039062 L 653.777344 400.039062 C 654.550781 406.597656 661.558594 411.269531 670.671875 411.269531 C 680.015625 411.378906 686.792969 406.9375 686.792969 400.828125 C 686.792969 383.824219 636.324219 401.042969 636.324219 367.578125 C 636.324219 352.015625 649.660156 341.230469 669.015625 341.230469 C 685.027344 341.230469 698.363281 347.789062 701.582031 357.136719 L 701.582031 365.800781 L 685.679688 365.800781 C 685.011719 360.011719 678.34375 356.023438 669.558594 356.023438 C 660.769531 356.023438 654.550781 360.027344 654.550781 365.691406 C 654.550781 382.371094 704.910156 365.242188 704.910156 398.382812 C 705.019531 414.722656 690.675781 426.0625 670.003906 426.0625 C 654.65625 426.046875 641.429688 418.929688 637.761719 408.703125 Z M 637.761719 408.703125 "/><path style=" stroke:none;fill-rule:nonzero;fill:#ffffff;fill-opacity:1;" d="M 723.148438 405.484375 C 729.152344 405.484375 733.378906 409.601562 733.378906 415.261719 C 733.378906 421.046875 729.152344 425.039062 723.148438 425.039062 C 717.253906 425.039062 713.03125 421.035156 713.03125 415.261719 C 713.03125 409.585938 717.253906 405.484375 723.148438 405.484375 Z M 714.144531 365.460938 L 714.144531 344 L 732.371094 344 L 732.371094 365.460938 L 727.699219 394.359375 L 718.585938 394.359375 Z M 714.144531 365.460938 "/><g clip-rule="nonzero" clip-path="url(#69418edcd3)"><path style=" stroke:none;fill-rule:nonzero;fill:#ffffff;fill-opacity:1;" d="M 38.71875 305.199219 C 37.699219 305.199219 36.691406 304.871094 35.824219 304.253906 C 34.292969 303.140625 33.535156 301.300781 33.859375 299.425781 L 39.816406 264.675781 C 39.910156 264.152344 39.742188 263.625 39.355469 263.253906 L 14.105469 238.640625 C 12.742188 237.324219 12.261719 235.375 12.851562 233.578125 C 13.4375 231.785156 14.96875 230.484375 16.84375 230.222656 L 51.730469 225.148438 C 52.257812 225.070312 52.707031 224.746094 52.9375 224.265625 L 68.546875 192.65625 C 69.382812 190.957031 71.085938 189.902344 72.972656 189.902344 C 74.859375 189.902344 76.5625 190.957031 77.398438 192.65625 L 92.992188 224.265625 C 93.226562 224.746094 93.675781 225.070312 94.199219 225.148438 L 129.089844 230.222656 C 130.960938 230.5 132.492188 231.785156 133.082031 233.578125 C 133.667969 235.375 133.1875 237.324219 131.828125 238.640625 L 106.578125 263.253906 C 106.191406 263.625 106.019531 264.152344 106.113281 264.675781 L 112.070312 299.425781 C 112.394531 301.300781 111.636719 303.140625 110.105469 304.253906 C 108.574219 305.367188 106.578125 305.507812 104.90625 304.625 L 73.699219 288.226562 C 73.238281 287.976562 72.679688 287.976562 72.199219 288.226562 L 40.992188 304.625 C 40.28125 305.011719 39.492188 305.199219 38.71875 305.199219 Z M 72.972656 284.714844 C 73.761719 284.714844 74.550781 284.898438 75.261719 285.285156 L 106.46875 301.6875 C 107.027344 301.980469 107.660156 301.933594 108.171875 301.5625 C 108.683594 301.191406 108.914062 300.601562 108.804688 299.984375 L 102.847656 265.234375 C 102.570312 263.625 103.113281 262 104.273438 260.871094 L 129.523438 236.257812 C 129.96875 235.824219 130.125 235.203125 129.925781 234.601562 C 129.722656 233.996094 129.242188 233.59375 128.625 233.503906 L 93.734375 228.429688 C 92.128906 228.195312 90.734375 227.191406 90.023438 225.71875 L 74.425781 194.113281 C 74.148438 193.554688 73.609375 193.214844 72.988281 193.214844 C 72.371094 193.214844 71.828125 193.554688 71.550781 194.113281 L 55.9375 225.71875 C 55.226562 227.175781 53.835938 228.179688 52.226562 228.429688 L 17.335938 233.503906 C 16.71875 233.59375 16.238281 233.996094 16.039062 234.601562 C 15.835938 235.203125 15.992188 235.808594 16.441406 236.257812 L 41.675781 260.871094 C 42.835938 262 43.375 263.640625 43.097656 265.234375 L 37.140625 299.984375 C 37.03125 300.601562 37.28125 301.191406 37.777344 301.5625 C 38.285156 301.933594 38.921875 301.980469 39.476562 301.6875 L 70.683594 285.285156 C 71.394531 284.898438 72.183594 284.714844 72.972656 284.714844 Z M 72.972656 284.714844 "/></g><g clip-rule="nonzero" clip-path="url(#5998ca9ae9)"><path style=" stroke:none;fill-rule:nonzero;fill:#ffffff;fill-opacity:1;" d="M 192.800781 305.199219 C 191.78125 305.199219 190.773438 304.871094 189.90625 304.253906 C 188.375 303.140625 187.617188 301.285156 187.941406 299.425781 L 193.898438 264.675781 C 193.992188 264.152344 193.820312 263.625 193.433594 263.253906 L 168.183594 238.640625 C 166.824219 237.324219 166.34375 235.375 166.933594 233.578125 C 167.519531 231.785156 169.035156 230.484375 170.925781 230.222656 L 205.8125 225.148438 C 206.339844 225.070312 206.785156 224.746094 207.019531 224.265625 L 222.613281 192.65625 C 223.449219 190.957031 225.152344 189.902344 227.039062 189.902344 C 228.925781 189.902344 230.628906 190.957031 231.464844 192.65625 L 247.058594 224.265625 C 247.292969 224.746094 247.738281 225.070312 248.265625 225.148438 L 283.15625 230.222656 C 285.027344 230.5 286.558594 231.785156 287.144531 233.578125 C 287.734375 235.375 287.253906 237.324219 285.894531 238.640625 L 260.644531 263.253906 C 260.257812 263.625 260.085938 264.152344 260.179688 264.675781 L 266.136719 299.425781 C 266.460938 301.300781 265.703125 303.140625 264.171875 304.253906 C 262.640625 305.367188 260.644531 305.507812 258.972656 304.625 L 227.765625 288.226562 C 227.300781 287.976562 226.730469 287.976562 226.265625 288.226562 L 195.058594 304.625 C 194.363281 305.011719 193.574219 305.199219 192.800781 305.199219 Z M 227.054688 284.714844 C 227.84375 284.714844 228.632812 284.898438 229.34375 285.285156 L 260.550781 301.6875 C 261.109375 301.980469 261.742188 301.933594 262.253906 301.5625 C 262.761719 301.191406 262.996094 300.601562 262.886719 299.984375 L 256.929688 265.234375 C 256.652344 263.625 257.191406 262 258.355469 260.871094 L 283.601562 236.257812 C 284.050781 235.824219 284.207031 235.203125 284.003906 234.601562 C 283.804688 233.996094 283.324219 233.59375 282.707031 233.503906 L 247.816406 228.429688 C 246.207031 228.195312 244.816406 227.191406 244.105469 225.71875 L 228.507812 194.113281 C 228.230469 193.554688 227.6875 193.214844 227.070312 193.214844 C 226.453125 193.214844 225.910156 193.554688 225.632812 194.113281 L 210.035156 225.71875 C 209.308594 227.175781 207.933594 228.179688 206.324219 228.429688 L 171.433594 233.503906 C 170.816406 233.59375 170.335938 233.996094 170.136719 234.601562 C 169.933594 235.203125 170.089844 235.808594 170.535156 236.257812 L 195.785156 260.871094 C 196.945312 262 197.488281 263.640625 197.210938 265.234375 L 191.253906 299.984375 C 191.144531 300.601562 191.394531 301.191406 191.886719 301.5625 C 192.398438 301.933594 193.03125 301.980469 193.589844 301.6875 L 224.796875 285.285156 C 225.476562 284.898438 226.265625 284.714844 227.054688 284.714844 Z M 227.054688 284.714844 "/></g><g clip-rule="nonzero" clip-path="url(#37ea4f3d84)"><path style=" stroke:none;fill-rule:nonzero;fill:#ffffff;fill-opacity:1;" d="M 415.390625 305.199219 C 414.601562 305.199219 413.8125 305.011719 413.085938 304.625 L 381.878906 288.226562 C 381.414062 287.976562 380.859375 287.976562 380.378906 288.226562 L 349.171875 304.625 C 347.5 305.507812 345.503906 305.367188 343.972656 304.253906 C 342.441406 303.140625 341.683594 301.300781 342.007812 299.425781 L 347.964844 264.675781 C 348.058594 264.152344 347.886719 263.625 347.5 263.253906 L 322.25 238.640625 C 320.890625 237.324219 320.410156 235.375 320.996094 233.578125 C 321.585938 231.785156 323.117188 230.484375 324.988281 230.222656 L 359.878906 225.148438 C 360.402344 225.070312 360.851562 224.746094 361.085938 224.265625 L 376.695312 192.65625 C 377.53125 190.957031 379.234375 189.902344 381.121094 189.902344 C 383.007812 189.902344 384.710938 190.957031 385.546875 192.65625 L 401.15625 224.265625 C 401.386719 224.746094 401.835938 225.070312 402.363281 225.148438 L 437.25 230.222656 C 439.125 230.5 440.65625 231.785156 441.242188 233.578125 C 441.832031 235.375 441.351562 237.324219 439.988281 238.640625 L 414.738281 263.253906 C 414.351562 263.625 414.183594 264.152344 414.277344 264.675781 L 420.234375 299.425781 C 420.558594 301.300781 419.800781 303.140625 418.269531 304.253906 C 417.417969 304.871094 416.410156 305.199219 415.390625 305.199219 Z M 381.136719 284.714844 C 381.925781 284.714844 382.714844 284.898438 383.425781 285.285156 L 414.632812 301.6875 C 415.1875 301.980469 415.824219 301.933594 416.332031 301.5625 C 416.84375 301.191406 417.078125 300.601562 416.96875 299.984375 L 411.011719 265.234375 C 410.734375 263.625 411.273438 262 412.433594 260.871094 L 437.683594 236.257812 C 438.132812 235.824219 438.289062 235.203125 438.085938 234.601562 C 437.886719 233.996094 437.40625 233.59375 436.789062 233.503906 L 401.898438 228.429688 C 400.289062 228.195312 398.898438 227.191406 398.1875 225.71875 L 382.574219 194.113281 C 382.296875 193.554688 381.753906 193.214844 381.136719 193.214844 C 380.515625 193.214844 379.976562 193.554688 379.695312 194.113281 L 364.085938 225.71875 C 363.375 227.175781 361.980469 228.179688 360.375 228.429688 L 325.484375 233.503906 C 324.867188 233.59375 324.386719 233.996094 324.183594 234.601562 C 323.984375 235.203125 324.140625 235.808594 324.585938 236.257812 L 349.835938 260.871094 C 350.996094 262 351.539062 263.640625 351.261719 265.234375 L 345.304688 299.984375 C 345.195312 300.601562 345.441406 301.191406 345.9375 301.5625 C 346.449219 301.933594 347.082031 301.980469 347.640625 301.6875 L 378.847656 285.285156 C 379.558594 284.898438 380.347656 284.714844 381.136719 284.714844 Z M 381.136719 284.714844 "/></g><g clip-rule="nonzero" clip-path="url(#5adb4d6e35)"><path style=" stroke:none;fill-rule:nonzero;fill:#ffffff;fill-opacity:1;" d="M 569.472656 305.199219 C 568.683594 305.199219 567.894531 305.011719 567.164062 304.625 L 535.960938 288.226562 C 535.496094 287.976562 534.9375 287.976562 534.460938 288.226562 L 503.253906 304.625 C 501.582031 305.507812 499.585938 305.367188 498.054688 304.253906 C 496.523438 303.140625 495.765625 301.300781 496.089844 299.425781 L 502.046875 264.675781 C 502.140625 264.152344 501.96875 263.625 501.582031 263.253906 L 476.332031 238.640625 C 474.972656 237.324219 474.492188 235.375 475.078125 233.578125 C 475.667969 231.785156 477.199219 230.484375 479.070312 230.222656 L 513.960938 225.148438 C 514.484375 225.070312 514.933594 224.746094 515.167969 224.265625 L 530.777344 192.65625 C 531.613281 190.957031 533.3125 189.902344 535.203125 189.902344 C 537.089844 189.902344 538.792969 190.957031 539.625 192.65625 L 555.238281 224.265625 C 555.46875 224.746094 555.917969 225.070312 556.445312 225.148438 L 591.332031 230.222656 C 593.203125 230.5 594.734375 231.785156 595.324219 233.578125 C 595.910156 235.375 595.433594 237.324219 594.070312 238.640625 L 568.820312 263.253906 C 568.433594 263.625 568.265625 264.152344 568.355469 264.675781 L 574.3125 299.425781 C 574.636719 301.300781 573.878906 303.140625 572.347656 304.253906 C 571.496094 304.871094 570.492188 305.199219 569.472656 305.199219 Z M 535.21875 284.714844 C 536.007812 284.714844 536.796875 284.898438 537.507812 285.285156 L 568.714844 301.6875 C 569.269531 301.980469 569.90625 301.933594 570.414062 301.5625 C 570.925781 301.191406 571.15625 300.601562 571.050781 299.984375 L 565.09375 265.234375 C 564.8125 263.625 565.355469 262 566.515625 260.871094 L 591.765625 236.257812 C 592.214844 235.824219 592.371094 235.203125 592.167969 234.601562 C 591.96875 233.996094 591.488281 233.59375 590.867188 233.503906 L 555.980469 228.429688 C 554.371094 228.195312 552.980469 227.191406 552.265625 225.71875 L 536.65625 194.113281 C 536.378906 193.554688 535.835938 193.214844 535.21875 193.214844 C 534.597656 193.214844 534.058594 193.554688 533.777344 194.113281 L 518.167969 225.71875 C 517.457031 227.175781 516.0625 228.179688 514.453125 228.429688 L 479.566406 233.503906 C 478.949219 233.59375 478.46875 233.996094 478.265625 234.601562 C 478.066406 235.203125 478.21875 235.808594 478.667969 236.257812 L 503.917969 260.871094 C 505.078125 262 505.621094 263.640625 505.34375 265.234375 L 499.386719 299.984375 C 499.277344 300.601562 499.523438 301.191406 500.019531 301.5625 C 500.53125 301.933594 501.164062 301.980469 501.722656 301.6875 L 532.925781 285.285156 C 533.640625 284.898438 534.429688 284.714844 535.21875 284.714844 Z M 535.21875 284.714844 "/></g><g clip-rule="nonzero" clip-path="url(#2a0cbe76f4)"><path style=" stroke:none;fill-rule:nonzero;fill:#ffffff;fill-opacity:1;" d="M 723.550781 305.199219 C 722.761719 305.199219 721.972656 305.011719 721.246094 304.625 L 690.042969 288.226562 C 689.578125 287.976562 689.019531 287.976562 688.539062 288.226562 L 657.335938 304.625 C 655.664062 305.507812 653.667969 305.367188 652.136719 304.253906 C 650.605469 303.140625 649.847656 301.300781 650.171875 299.425781 L 656.128906 264.675781 C 656.21875 264.152344 656.050781 263.625 655.664062 263.253906 L 630.414062 238.640625 C 629.050781 237.324219 628.574219 235.375 629.160156 233.578125 C 629.75 231.785156 631.28125 230.484375 633.152344 230.222656 L 668.039062 225.148438 C 668.566406 225.070312 669.015625 224.746094 669.246094 224.265625 L 684.84375 192.65625 C 685.679688 190.957031 687.378906 189.902344 689.265625 189.902344 C 691.15625 189.902344 692.855469 190.957031 693.691406 192.65625 L 709.304688 224.265625 C 709.535156 224.746094 709.984375 225.070312 710.511719 225.148438 L 745.398438 230.222656 C 747.269531 230.5 748.800781 231.785156 749.390625 233.578125 C 749.976562 235.375 749.5 237.324219 748.136719 238.640625 L 722.886719 263.253906 C 722.5 263.625 722.332031 264.152344 722.421875 264.675781 L 728.378906 299.425781 C 728.703125 301.300781 727.945312 303.140625 726.414062 304.253906 C 725.578125 304.871094 724.574219 305.199219 723.550781 305.199219 Z M 689.296875 284.714844 C 690.085938 284.714844 690.875 284.898438 691.589844 285.285156 L 722.792969 301.6875 C 723.351562 301.980469 723.984375 301.933594 724.496094 301.5625 C 725.007812 301.191406 725.238281 300.601562 725.128906 299.984375 L 719.175781 265.234375 C 718.894531 263.625 719.4375 262 720.597656 260.871094 L 745.847656 236.257812 C 746.296875 235.824219 746.449219 235.203125 746.25 234.601562 C 746.0625 233.996094 745.570312 233.59375 744.949219 233.503906 L 710.0625 228.429688 C 708.453125 228.195312 707.058594 227.191406 706.347656 225.71875 L 690.753906 194.113281 C 690.472656 193.554688 689.933594 193.214844 689.3125 193.214844 C 688.695312 193.214844 688.152344 193.554688 687.875 194.113281 L 672.28125 225.71875 C 671.554688 227.175781 670.175781 228.179688 668.566406 228.429688 L 633.679688 233.503906 C 633.058594 233.59375 632.578125 233.996094 632.378906 234.601562 C 632.175781 235.203125 632.332031 235.808594 632.78125 236.257812 L 658.03125 260.871094 C 659.191406 262 659.734375 263.640625 659.453125 265.234375 L 653.496094 299.984375 C 653.390625 300.601562 653.636719 301.191406 654.132812 301.5625 C 654.640625 301.933594 655.277344 301.980469 655.832031 301.6875 L 687.039062 285.285156 C 687.71875 284.898438 688.507812 284.714844 689.296875 284.714844 Z M 689.296875 284.714844 "/></g><path style=" stroke:none;fill-rule:nonzero;fill:#ffffff;fill-opacity:1;" d="M 103.746094 419.949219 L 84.253906 419.949219 L 68.238281 393.152344 L 55.507812 393.152344 L 55.507812 419.949219 L 32.269531 419.949219 L 32.269531 337.347656 L 72.847656 337.347656 C 92.359375 337.347656 105.972656 349.089844 105.972656 365.921875 C 105.972656 376.089844 99.988281 385.015625 90.566406 389.175781 L 103.746094 409.800781 Z M 86.140625 416.625 L 100.433594 416.625 L 100.433594 410.777344 L 85.566406 387.523438 L 87.53125 386.824219 C 96.722656 383.546875 102.664062 375.347656 102.664062 365.9375 C 102.664062 358.636719 99.832031 352.371094 94.480469 347.789062 C 89.046875 343.148438 81.574219 340.703125 72.863281 340.703125 L 35.59375 340.703125 L 35.59375 416.640625 L 52.164062 416.640625 L 52.164062 389.84375 L 70.109375 389.84375 Z M 69.398438 379.476562 L 52.179688 379.476562 L 52.179688 352.136719 L 69.414062 352.136719 C 79.457031 352.136719 86.203125 357.675781 86.203125 365.921875 C 86.203125 369.898438 84.421875 373.441406 81.203125 375.902344 C 78.15625 378.207031 73.980469 379.476562 69.398438 379.476562 Z M 55.507812 376.148438 L 69.398438 376.148438 C 77.320312 376.148438 82.859375 371.941406 82.859375 365.921875 C 82.859375 359.582031 77.582031 355.464844 69.398438 355.464844 L 55.507812 355.464844 Z M 55.507812 376.148438 "/><path style=" stroke:none;fill-rule:nonzero;fill:#ffffff;fill-opacity:1;" d="M 176.460938 419.949219 L 116.214844 419.949219 L 116.214844 337.347656 L 175.347656 337.347656 L 175.347656 356.578125 L 138.664062 356.578125 L 138.664062 369.140625 L 170.910156 369.140625 L 170.910156 386.253906 L 138.664062 386.253906 L 138.664062 400.71875 L 176.460938 400.71875 Z M 119.542969 416.625 L 173.136719 416.625 L 173.136719 404.0625 L 135.339844 404.0625 L 135.339844 382.941406 L 167.582031 382.941406 L 167.582031 372.484375 L 135.339844 372.484375 L 135.339844 353.253906 L 172.023438 353.253906 L 172.023438 340.6875 L 119.542969 340.6875 Z M 119.542969 416.625 "/><path style=" stroke:none;fill-rule:nonzero;fill:#ffffff;fill-opacity:1;" d="M 237.035156 419.949219 L 204.28125 419.949219 L 180.917969 350.082031 L 180.917969 337.363281 L 201.25 337.363281 L 220.601562 397.933594 L 239.957031 337.363281 L 260.289062 337.363281 L 260.289062 350.082031 Z M 206.679688 416.625 L 234.636719 416.625 L 256.960938 349.539062 L 256.960938 340.691406 L 242.386719 340.691406 L 220.601562 408.855469 L 198.820312 340.691406 L 184.246094 340.691406 L 184.246094 349.539062 Z M 206.679688 416.625 "/><path style=" stroke:none;fill-rule:nonzero;fill:#ffffff;fill-opacity:1;" d="M 292.082031 419.949219 L 268.859375 419.949219 L 268.859375 337.347656 L 292.082031 337.347656 Z M 272.183594 416.625 L 288.753906 416.625 L 288.753906 340.691406 L 272.183594 340.691406 Z M 272.183594 416.625 "/><path style=" stroke:none;fill-rule:nonzero;fill:#ffffff;fill-opacity:1;" d="M 366.113281 419.949219 L 305.867188 419.949219 L 305.867188 337.347656 L 365 337.347656 L 365 356.578125 L 328.316406 356.578125 L 328.316406 369.140625 L 360.558594 369.140625 L 360.558594 386.253906 L 328.316406 386.253906 L 328.316406 400.71875 L 366.113281 400.71875 Z M 309.191406 416.625 L 362.785156 416.625 L 362.785156 404.0625 L 324.988281 404.0625 L 324.988281 382.941406 L 357.230469 382.941406 L 357.230469 372.484375 L 324.988281 372.484375 L 324.988281 353.253906 L 361.671875 353.253906 L 361.671875 340.6875 L 309.191406 340.6875 Z M 309.191406 416.625 "/><path style=" stroke:none;fill-rule:nonzero;fill:#ffffff;fill-opacity:1;" d="M 482.398438 419.949219 L 453.046875 419.949219 L 438.164062 371.371094 L 423.28125 419.949219 L 393.929688 419.949219 L 371.359375 350.066406 L 371.359375 337.347656 L 391.128906 337.347656 L 409.574219 394.453125 L 427.488281 337.347656 L 448.714844 337.347656 L 466.738281 394.46875 L 485.183594 337.347656 L 504.847656 337.347656 L 504.847656 350.050781 L 504.769531 350.296875 Z M 455.523438 416.625 L 479.984375 416.625 L 501.550781 349.539062 L 501.550781 340.675781 L 487.640625 340.675781 L 466.738281 405.40625 L 446.300781 340.675781 L 429.949219 340.675781 L 409.632812 405.421875 L 388.71875 340.675781 L 374.699219 340.675781 L 374.699219 349.539062 L 396.375 416.625 L 420.835938 416.625 L 438.179688 360.027344 Z M 455.523438 416.625 "/><path style=" stroke:none;fill-rule:nonzero;fill:#ffffff;fill-opacity:1;" d="M 584.03125 422.734375 C 561.90625 422.734375 546.449219 407.371094 546.449219 385.386719 L 546.449219 337.363281 L 569.671875 337.363281 L 569.671875 384.722656 C 569.671875 393.355469 574.609375 402.1875 584.03125 402.40625 C 588.222656 402.40625 591.8125 400.71875 594.410156 397.546875 C 597.027344 394.359375 598.464844 389.8125 598.464844 384.722656 L 598.464844 337.363281 L 621.578125 337.363281 L 621.578125 385.386719 C 621.59375 407.371094 606.140625 422.734375 584.03125 422.734375 Z M 549.777344 340.691406 L 549.777344 385.386719 C 549.777344 395.289062 553.054688 403.796875 559.277344 409.972656 C 565.496094 416.144531 574.050781 419.410156 584.015625 419.410156 C 593.976562 419.410156 602.550781 416.144531 608.753906 409.972656 C 614.972656 403.796875 618.253906 395.289062 618.253906 385.386719 L 618.253906 340.691406 L 601.792969 340.691406 L 601.792969 384.722656 C 601.792969 397.082031 594.472656 405.730469 584.015625 405.730469 L 583.984375 405.730469 C 578.660156 405.625 574.113281 403.289062 570.847656 398.984375 C 567.941406 395.164062 566.347656 390.089844 566.347656 384.722656 L 566.347656 340.691406 Z M 549.777344 340.691406 "/><path style=" stroke:none;fill-rule:nonzero;fill:#ffffff;fill-opacity:1;" d="M 664.960938 422.734375 C 648.949219 422.734375 635.054688 415.152344 631.15625 404.292969 L 631.0625 404.015625 L 631.0625 393.386719 L 650.21875 393.386719 L 650.386719 394.855469 C 651.054688 400.519531 657.472656 404.617188 665.628906 404.617188 C 670.855469 404.679688 675.328125 403.242188 677.925781 400.6875 C 679.367188 399.265625 680.09375 397.640625 680.09375 395.828125 C 680.09375 390.476562 673.441406 389.332031 662.59375 387.910156 C 655.398438 386.964844 647.261719 385.898438 640.902344 382.507812 C 633.324219 378.472656 629.625 371.957031 629.625 362.582031 C 629.625 346.089844 643.75 334.5625 663.972656 334.5625 C 672.0625 334.5625 679.613281 336.15625 685.785156 339.171875 C 692.128906 342.265625 696.382812 346.570312 698.117188 351.582031 L 698.210938 351.84375 L 698.210938 362.457031 L 679.164062 362.457031 L 678.996094 360.988281 C 678.4375 356.097656 672.480469 352.679688 664.527344 352.679688 C 656.792969 352.679688 651.175781 356.050781 651.175781 360.695312 C 651.175781 365.890625 657.78125 366.992188 668.550781 368.351562 C 675.746094 369.265625 683.882812 370.300781 690.242188 373.628906 C 697.839844 377.621094 701.535156 384.070312 701.535156 393.386719 C 701.582031 400.671875 698.921875 407.21875 693.847656 412.339844 C 687.179688 419.039062 676.921875 422.734375 664.960938 422.734375 Z M 634.375 403.425781 C 637.933594 412.847656 650.449219 419.410156 664.945312 419.410156 C 676.023438 419.410156 685.445312 416.066406 691.464844 410.003906 C 695.90625 405.53125 698.226562 399.789062 698.195312 393.402344 C 698.195312 385.324219 695.179688 379.988281 688.679688 376.582031 C 682.847656 373.519531 675.019531 372.53125 668.101562 371.664062 C 657.675781 370.347656 647.820312 369.09375 647.820312 360.710938 C 647.820312 354.042969 654.671875 349.367188 664.496094 349.367188 C 673.457031 349.367188 680.386719 353.3125 681.980469 359.148438 L 694.851562 359.148438 L 694.851562 352.433594 C 691.695312 343.859375 679.039062 337.90625 663.941406 337.90625 C 654.84375 337.90625 647.046875 340.316406 641.382812 344.867188 C 635.84375 349.339844 632.921875 355.464844 632.921875 362.582031 C 632.921875 370.71875 635.9375 376.121094 642.433594 379.570312 C 648.253906 382.664062 656.097656 383.699219 662.996094 384.597656 C 673.488281 385.976562 683.402344 387.273438 683.402344 395.816406 C 683.402344 398.507812 682.320312 400.996094 680.261719 403.039062 C 677.046875 406.226562 671.707031 408.007812 665.613281 407.929688 C 656.265625 407.929688 648.996094 403.378906 647.339844 396.695312 L 634.375 396.695312 Z M 634.375 403.425781 "/><path style=" stroke:none;fill-rule:nonzero;fill:#ffffff;fill-opacity:1;" d="M 718.089844 421.730469 C 711.269531 421.730469 706.316406 416.917969 706.316406 410.28125 C 706.316406 403.644531 711.269531 398.832031 718.089844 398.832031 C 724.976562 398.832031 729.988281 403.644531 729.988281 410.28125 C 729.988281 416.917969 724.992188 421.730469 718.089844 421.730469 Z M 718.089844 402.15625 C 713.109375 402.15625 709.644531 405.5 709.644531 410.28125 C 709.644531 415.136719 713.046875 418.402344 718.089844 418.402344 C 723.210938 418.402344 726.664062 415.136719 726.664062 410.28125 C 726.664062 405.5 723.136719 402.15625 718.089844 402.15625 Z M 724.078125 391.050781 L 712.117188 391.050781 L 707.429688 360.601562 L 707.429688 337.347656 L 729 337.347656 L 729 360.601562 L 728.984375 360.742188 Z M 714.964844 387.722656 L 721.230469 387.722656 L 725.65625 360.355469 L 725.65625 340.691406 L 710.757812 340.691406 L 710.757812 360.355469 Z M 714.964844 387.722656 "/><path style=" stroke:none;fill-rule:nonzero;fill:#ffffff;fill-opacity:1;" d="M 378.058594 571.09375 C 377.191406 571.09375 376.308594 570.859375 375.535156 570.410156 L 249.363281 497.570312 C 247.800781 496.671875 246.84375 495.003906 246.84375 493.207031 L 246.84375 460.5 C 246.84375 458.675781 247.785156 457.050781 249.363281 456.136719 C 250.941406 455.226562 252.832031 455.226562 254.410156 456.136719 L 377.191406 527.027344 C 377.714844 527.339844 378.382812 527.339844 378.90625 527.027344 L 501.691406 456.136719 C 503.269531 455.226562 505.15625 455.226562 506.734375 456.136719 C 508.3125 457.050781 509.257812 458.691406 509.257812 460.5 L 509.257812 493.207031 C 509.257812 495.003906 508.296875 496.671875 506.734375 497.570312 L 380.5625 570.410156 C 379.804688 570.875 378.9375 571.09375 378.058594 571.09375 Z M 251.902344 458.785156 C 251.5 458.785156 251.191406 458.921875 251.035156 459.015625 C 250.773438 459.171875 250.167969 459.605469 250.167969 460.5 L 250.167969 493.207031 C 250.167969 493.828125 250.492188 494.382812 251.035156 494.695312 L 377.207031 567.535156 C 377.730469 567.84375 378.398438 567.84375 378.921875 567.535156 L 505.09375 494.691406 C 505.621094 494.382812 505.960938 493.8125 505.960938 493.207031 L 505.960938 460.5 C 505.960938 459.605469 505.355469 459.171875 505.09375 459.015625 C 504.832031 458.859375 504.148438 458.566406 503.375 459.015625 L 380.59375 529.90625 C 379.03125 530.804688 377.097656 530.804688 375.550781 529.90625 L 252.769531 459.015625 C 252.457031 458.847656 252.164062 458.785156 251.902344 458.785156 Z M 251.902344 458.785156 "/></g></svg>