<svg xmlns="http://www.w3.org/2000/svg" xmlns:xlink="http://www.w3.org/1999/xlink" width="1024" zoomAndPan="magnify" viewBox="0 0 768 767.999994" height="1024" preserveAspectRatio="xMidYMid meet" version="1.2"><defs><clipPath id="1fc559fcfe"><path d="M 59 73.230469 L 709 73.230469 L 709 369 L 59 369 Z M 59 73.230469 "/></clipPath><clipPath id="040dcbfda7"><path d="M 57 402 L 349 402 L 349 694.980469 L 57 694.980469 Z M 57 402 "/></clipPath><clipPath id="f36b0da9bf"><path d="M 378 437 L 710.871094 437 L 710.871094 492 L 378 492 Z M 378 437 "/></clipPath><clipPath id="c6998915b4"><path d="M 378 522 L 710.871094 522 L 710.871094 577 L 378 577 Z M 378 522 "/></clipPath><clipPath id="5133531841"><path d="M 378 605 L 710.871094 605 L 710.871094 660 L 378 660 Z M 378 605 "/></clipPath></defs><g id="c3f413dd75"><path style=" stroke:none;fill-rule:nonzero;fill:#ffffff;fill-opacity:1;" d="M 271.59375 168.347656 C 270.148438 163.894531 266.027344 160.902344 261.34375 160.902344 L 225.199219 160.902344 L 214.027344 126.523438 C 212.578125 122.070312 208.460938 119.074219 203.777344 119.074219 C 199.09375 119.074219 194.972656 122.070312 193.527344 126.523438 L 182.355469 160.902344 L 146.210938 160.902344 C 141.527344 160.902344 137.40625 163.894531 135.960938 168.347656 C 134.511719 172.800781 136.085938 177.644531 139.875 180.402344 L 169.117188 201.644531 L 157.949219 236.023438 C 156.5 240.476562 158.074219 245.320312 161.863281 248.074219 C 163.757812 249.449219 165.980469 250.140625 168.199219 250.140625 C 170.421875 250.140625 172.640625 249.449219 174.535156 248.074219 L 203.777344 226.828125 L 233.019531 248.074219 C 236.808594 250.828125 241.902344 250.824219 245.691406 248.074219 C 249.480469 245.320312 251.054688 240.476562 249.605469 236.023438 L 238.433594 201.644531 L 267.679688 180.398438 C 271.46875 177.644531 273.042969 172.804688 271.59375 168.347656 Z M 230.308594 192.34375 C 226.519531 195.097656 224.949219 199.941406 226.394531 204.394531 L 236.457031 235.367188 L 210.109375 216.222656 C 206.324219 213.472656 201.230469 213.472656 197.441406 216.226562 L 171.09375 235.367188 L 181.160156 204.394531 C 182.605469 199.941406 181.03125 195.097656 177.242188 192.34375 L 150.898438 173.203125 L 183.460938 173.203125 C 188.144531 173.203125 192.261719 170.210938 193.714844 165.753906 L 203.777344 134.785156 L 213.839844 165.753906 C 215.285156 170.210938 219.40625 173.203125 224.089844 173.203125 L 256.652344 173.203125 Z M 230.308594 192.34375 "/><path style=" stroke:none;fill-rule:nonzero;fill:#ffffff;fill-opacity:1;" d="M 451.6875 168.347656 C 450.242188 163.894531 446.121094 160.902344 441.4375 160.902344 L 405.292969 160.902344 L 394.125 126.523438 C 392.675781 122.070312 388.558594 119.074219 383.871094 119.074219 C 379.1875 119.074219 375.070312 122.070312 373.621094 126.523438 L 362.453125 160.902344 L 326.304688 160.902344 C 321.621094 160.902344 317.503906 163.894531 316.054688 168.347656 C 314.605469 172.804688 316.179688 177.644531 319.972656 180.402344 L 349.214844 201.644531 L 338.042969 236.023438 C 336.59375 240.476562 338.167969 245.320312 341.960938 248.074219 C 343.855469 249.449219 346.074219 250.140625 348.296875 250.140625 C 350.515625 250.140625 352.734375 249.449219 354.628906 248.074219 L 383.871094 226.828125 L 413.113281 248.070312 C 416.902344 250.824219 421.996094 250.824219 425.785156 248.074219 C 429.574219 245.320312 431.148438 240.476562 429.699219 236.019531 L 418.53125 201.644531 L 447.773438 180.398438 C 451.5625 177.644531 453.136719 172.804688 451.6875 168.347656 Z M 410.40625 192.34375 C 406.617188 195.097656 405.042969 199.941406 406.488281 204.394531 L 416.554688 235.367188 L 390.207031 216.222656 C 386.417969 213.472656 381.328125 213.472656 377.535156 216.226562 L 351.191406 235.367188 L 361.253906 204.394531 C 362.699219 199.941406 361.128906 195.097656 357.339844 192.34375 L 330.992188 173.203125 L 363.558594 173.203125 C 368.242188 173.203125 372.359375 170.210938 373.808594 165.753906 L 383.871094 134.785156 L 393.9375 165.753906 C 395.382812 170.210938 399.503906 173.203125 404.1875 173.203125 L 436.75 173.203125 Z M 410.40625 192.34375 "/><path style=" stroke:none;fill-rule:nonzero;fill:#ffffff;fill-opacity:1;" d="M 631.785156 168.347656 C 630.335938 163.894531 626.21875 160.902344 621.535156 160.902344 L 585.386719 160.902344 L 574.21875 126.523438 C 572.769531 122.070312 568.652344 119.074219 563.96875 119.074219 C 559.285156 119.074219 555.164062 122.070312 553.714844 126.523438 L 542.546875 160.902344 L 506.402344 160.902344 C 501.71875 160.902344 497.597656 163.894531 496.152344 168.347656 C 494.703125 172.804688 496.277344 177.644531 500.066406 180.402344 L 529.308594 201.644531 L 518.140625 236.023438 C 516.691406 240.476562 518.265625 245.320312 522.054688 248.074219 C 525.84375 250.824219 530.9375 250.828125 534.726562 248.074219 L 563.96875 226.828125 L 593.210938 248.074219 C 595.105469 249.449219 597.324219 250.140625 599.546875 250.140625 C 601.765625 250.140625 603.984375 249.449219 605.878906 248.074219 C 609.671875 245.320312 611.242188 240.476562 609.796875 236.023438 L 598.625 201.644531 L 627.871094 180.398438 C 631.660156 177.644531 633.230469 172.800781 631.785156 168.347656 Z M 590.5 192.34375 C 586.710938 195.097656 585.136719 199.941406 586.585938 204.394531 L 596.648438 235.367188 L 570.300781 216.222656 C 566.511719 213.472656 561.417969 213.472656 557.632812 216.226562 L 531.285156 235.367188 L 541.347656 204.394531 C 542.796875 199.941406 541.222656 195.097656 537.433594 192.34375 L 511.085938 173.203125 L 543.652344 173.203125 C 548.335938 173.203125 552.453125 170.210938 553.902344 165.753906 L 563.964844 134.785156 L 574.03125 165.757812 C 575.480469 170.210938 579.597656 173.203125 584.28125 173.203125 L 616.84375 173.203125 Z M 590.5 192.34375 "/><g clip-rule="nonzero" clip-path="url(#1fc559fcfe)"><path style=" stroke:none;fill-rule:nonzero;fill:#ffffff;fill-opacity:1;" d="M 634.753906 73.195312 L 132.992188 73.195312 C 92.589844 73.195312 59.71875 103.78125 59.71875 141.375 L 59.71875 231.8125 C 59.71875 269.40625 92.589844 299.992188 132.992188 299.992188 L 156.695312 299.992188 L 196.101562 358.148438 C 200.363281 364.433594 207.535156 368.128906 215.402344 368.128906 C 215.636719 368.128906 215.871094 368.125 216.105469 368.121094 C 224.199219 367.894531 231.410156 363.789062 235.394531 357.136719 L 269.632812 299.992188 L 634.753906 299.992188 C 675.15625 299.992188 708.023438 269.40625 708.023438 231.8125 L 708.023438 141.375 C 708.023438 103.78125 675.15625 73.195312 634.753906 73.195312 Z M 695.722656 231.8125 C 695.722656 262.625 668.371094 287.691406 634.753906 287.691406 L 262.664062 287.691406 L 224.839844 350.816406 C 223.027344 353.84375 219.632812 355.714844 215.761719 355.824219 C 211.851562 355.949219 208.304688 354.222656 206.285156 351.246094 L 163.21875 287.691406 L 132.992188 287.691406 C 99.371094 287.691406 72.023438 262.625 72.023438 231.8125 L 72.023438 141.375 C 72.023438 110.5625 99.371094 85.496094 132.992188 85.496094 L 634.753906 85.496094 C 668.371094 85.496094 695.722656 110.5625 695.722656 141.375 Z M 695.722656 231.8125 "/></g><g clip-rule="nonzero" clip-path="url(#040dcbfda7)"><path style=" stroke:none;fill-rule:nonzero;fill:#ffffff;fill-opacity:1;" d="M 348.710938 548.648438 C 348.710938 468.230469 283.285156 402.808594 202.871094 402.808594 C 122.453125 402.808594 57.03125 468.234375 57.03125 548.648438 C 57.03125 590.992188 75.296875 630.964844 107.214844 658.71875 L 107.222656 658.765625 L 109.03125 660.289062 C 135.230469 682.34375 168.554688 694.488281 202.871094 694.488281 C 207.160156 694.488281 211.433594 694.300781 215.679688 693.925781 C 220.667969 693.484375 225.617188 692.78125 230.507812 691.835938 C 230.957031 691.75 231.402344 691.664062 231.851562 691.574219 C 235.851562 690.761719 239.816406 689.785156 243.726562 688.644531 C 243.75 688.636719 243.769531 688.632812 243.792969 688.625 C 263.085938 682.984375 281.15625 673.382812 296.710938 660.289062 L 298.519531 658.765625 L 298.527344 658.71875 C 330.445312 630.960938 348.710938 590.992188 348.710938 548.648438 Z M 69.332031 548.648438 C 69.332031 475.015625 129.238281 415.109375 202.871094 415.109375 C 276.503906 415.109375 336.410156 475.015625 336.410156 548.648438 C 336.410156 583.257812 323.085938 616.144531 299.433594 640.886719 C 297.203125 604.050781 269.242188 573.257812 231.433594 562.75 C 245.96875 553.347656 255.613281 537.007812 255.613281 518.449219 C 255.613281 489.367188 231.953125 465.707031 202.871094 465.707031 C 173.789062 465.707031 150.128906 489.367188 150.128906 518.449219 C 150.128906 537.007812 159.773438 553.347656 174.308594 562.75 C 136.496094 573.257812 108.539062 604.050781 106.308594 640.886719 C 82.65625 616.148438 69.332031 583.257812 69.332031 548.648438 Z M 202.871094 558.886719 C 202.855469 558.886719 202.84375 558.886719 202.828125 558.886719 C 180.550781 558.863281 162.429688 540.734375 162.429688 518.449219 C 162.429688 496.152344 180.574219 478.007812 202.871094 478.007812 C 225.167969 478.007812 243.3125 496.152344 243.3125 518.449219 C 243.3125 540.734375 225.191406 558.863281 202.914062 558.886719 C 202.898438 558.886719 202.882812 558.886719 202.871094 558.886719 Z M 199.964844 682.15625 C 199.648438 682.148438 199.328125 682.132812 199.011719 682.125 C 198.363281 682.105469 197.710938 682.089844 197.0625 682.0625 C 196.6875 682.042969 196.3125 682.019531 195.9375 682 C 195.347656 681.96875 194.757812 681.941406 194.167969 681.902344 C 193.769531 681.875 193.371094 681.839844 192.96875 681.8125 C 192.410156 681.769531 191.84375 681.730469 191.285156 681.683594 C 190.867188 681.644531 190.453125 681.601562 190.039062 681.5625 C 189.496094 681.507812 188.953125 681.457031 188.410156 681.398438 C 187.988281 681.355469 187.566406 681.300781 187.140625 681.25 C 186.609375 681.1875 186.074219 681.125 185.542969 681.054688 C 185.117188 681 184.691406 680.9375 184.269531 680.878906 C 183.742188 680.804688 183.214844 680.730469 182.6875 680.648438 C 182.257812 680.585938 181.828125 680.511719 181.402344 680.441406 C 180.882812 680.355469 180.363281 680.273438 179.84375 680.183594 C 179.414062 680.109375 178.984375 680.027344 178.554688 679.945312 C 178.039062 679.851562 177.527344 679.757812 177.015625 679.65625 C 176.585938 679.570312 176.15625 679.480469 175.730469 679.390625 C 175.21875 679.285156 174.707031 679.179688 174.195312 679.066406 C 173.769531 678.972656 173.347656 678.875 172.921875 678.777344 C 172.414062 678.660156 171.902344 678.542969 171.394531 678.417969 C 170.96875 678.316406 170.546875 678.207031 170.125 678.101562 C 169.621094 677.972656 169.113281 677.84375 168.609375 677.710938 C 168.1875 677.597656 167.765625 677.484375 167.347656 677.367188 C 166.84375 677.226562 166.339844 677.089844 165.839844 676.945312 C 165.417969 676.824219 165 676.699219 164.582031 676.574219 C 164.085938 676.421875 163.585938 676.273438 163.089844 676.117188 C 162.671875 675.988281 162.257812 675.855469 161.839844 675.71875 C 161.34375 675.558594 160.851562 675.398438 160.359375 675.234375 C 159.945312 675.09375 159.53125 674.953125 159.121094 674.808594 C 158.628906 674.636719 158.136719 674.464844 157.644531 674.289062 C 157.234375 674.140625 156.828125 673.992188 156.417969 673.839844 C 155.929688 673.660156 155.441406 673.476562 154.953125 673.289062 C 154.546875 673.132812 154.144531 672.972656 153.738281 672.8125 C 153.253906 672.621094 152.769531 672.425781 152.285156 672.230469 C 151.882812 672.0625 151.480469 671.898438 151.082031 671.730469 C 150.597656 671.527344 150.117188 671.320312 149.636719 671.113281 C 149.238281 670.9375 148.84375 670.765625 148.445312 670.585938 C 147.96875 670.375 147.492188 670.160156 147.019531 669.941406 C 146.621094 669.757812 146.226562 669.574219 145.832031 669.386719 C 145.363281 669.164062 144.894531 668.941406 144.425781 668.710938 C 144.03125 668.523438 143.640625 668.328125 143.25 668.132812 C 142.78125 667.902344 142.316406 667.664062 141.851562 667.425781 C 141.464844 667.226562 141.078125 667.027344 140.691406 666.824219 C 140.230469 666.582031 139.769531 666.335938 139.308594 666.085938 C 138.925781 665.878906 138.542969 665.671875 138.160156 665.460938 C 137.703125 665.207031 137.246094 664.949219 136.792969 664.691406 C 136.414062 664.476562 136.035156 664.261719 135.660156 664.042969 C 135.207031 663.777344 134.757812 663.511719 134.308594 663.242188 C 133.933594 663.015625 133.554688 662.792969 133.183594 662.566406 C 132.738281 662.292969 132.296875 662.015625 131.855469 661.738281 C 131.480469 661.503906 131.109375 661.273438 130.742188 661.035156 C 130.300781 660.753906 129.863281 660.464844 129.429688 660.179688 C 129.0625 659.9375 128.695312 659.695312 128.332031 659.453125 C 127.898438 659.160156 127.46875 658.863281 127.039062 658.566406 C 126.675781 658.316406 126.3125 658.066406 125.949219 657.8125 C 125.527344 657.511719 125.105469 657.207031 124.683594 656.902344 C 124.324219 656.644531 123.960938 656.386719 123.605469 656.121094 C 123.1875 655.8125 122.777344 655.5 122.367188 655.191406 C 122.007812 654.917969 121.648438 654.648438 121.289062 654.375 C 120.886719 654.0625 120.488281 653.742188 120.085938 653.425781 C 119.730469 653.144531 119.371094 652.863281 119.015625 652.578125 C 118.945312 652.519531 118.875 652.460938 118.808594 652.40625 C 118.578125 650.15625 118.464844 647.890625 118.464844 645.648438 C 118.464844 604.601562 156.304688 571.210938 202.828125 571.191406 C 202.84375 571.191406 202.855469 571.191406 202.871094 571.191406 C 202.882812 571.191406 202.898438 571.191406 202.910156 571.191406 C 249.433594 571.210938 287.277344 604.601562 287.277344 645.648438 C 287.277344 647.890625 287.164062 650.15625 286.933594 652.40625 C 286.859375 652.46875 286.785156 652.53125 286.707031 652.59375 C 286.378906 652.855469 286.046875 653.117188 285.71875 653.378906 C 285.292969 653.714844 284.867188 654.054688 284.433594 654.386719 C 284.097656 654.648438 283.761719 654.902344 283.421875 655.15625 C 282.988281 655.484375 282.558594 655.8125 282.121094 656.132812 C 281.78125 656.386719 281.433594 656.632812 281.089844 656.882812 C 280.65625 657.195312 280.21875 657.511719 279.78125 657.820312 C 279.429688 658.070312 279.074219 658.3125 278.722656 658.554688 C 278.285156 658.859375 277.84375 659.160156 277.402344 659.457031 C 277.046875 659.699219 276.683594 659.9375 276.324219 660.171875 C 275.882812 660.464844 275.4375 660.753906 274.996094 661.039062 C 274.628906 661.273438 274.261719 661.503906 273.894531 661.734375 C 273.449219 662.015625 273.003906 662.292969 272.550781 662.570312 C 272.183594 662.796875 271.8125 663.019531 271.4375 663.238281 C 270.984375 663.511719 270.535156 663.78125 270.078125 664.046875 C 269.703125 664.261719 269.328125 664.476562 268.953125 664.691406 C 268.496094 664.949219 268.035156 665.210938 267.578125 665.464844 C 267.199219 665.675781 266.816406 665.882812 266.4375 666.089844 C 265.972656 666.335938 265.511719 666.585938 265.046875 666.832031 C 264.664062 667.03125 264.277344 667.230469 263.890625 667.429688 C 263.425781 667.667969 262.957031 667.90625 262.488281 668.140625 C 262.101562 668.332031 261.710938 668.523438 261.320312 668.714844 C 260.851562 668.945312 260.378906 669.171875 259.90625 669.394531 C 259.511719 669.578125 259.117188 669.761719 258.726562 669.945312 C 258.25 670.160156 257.773438 670.378906 257.296875 670.59375 C 256.898438 670.769531 256.5 670.945312 256.101562 671.117188 C 255.625 671.324219 255.144531 671.527344 254.664062 671.730469 C 254.261719 671.902344 253.859375 672.066406 253.453125 672.234375 C 252.972656 672.429688 252.488281 672.625 252.007812 672.816406 C 251.601562 672.976562 251.195312 673.136719 250.785156 673.292969 C 250.300781 673.480469 249.8125 673.660156 249.324219 673.84375 C 248.914062 673.996094 248.503906 674.144531 248.09375 674.292969 C 247.605469 674.46875 247.117188 674.640625 246.625 674.808594 C 246.210938 674.953125 245.796875 675.097656 245.382812 675.238281 C 244.890625 675.402344 244.398438 675.5625 243.902344 675.722656 C 243.484375 675.855469 243.070312 675.988281 242.648438 676.121094 C 242.15625 676.273438 241.65625 676.425781 241.160156 676.574219 C 240.742188 676.699219 240.320312 676.824219 239.902344 676.945312 C 239.402344 677.089844 238.898438 677.230469 238.398438 677.367188 C 237.976562 677.484375 237.554688 677.601562 237.128906 677.714844 C 236.628906 677.847656 236.125 677.976562 235.621094 678.101562 C 235.195312 678.210938 234.769531 678.320312 234.34375 678.421875 C 233.839844 678.542969 233.332031 678.660156 232.824219 678.777344 C 232.398438 678.878906 231.972656 678.976562 231.542969 679.070312 C 231.035156 679.183594 230.523438 679.289062 230.011719 679.394531 C 229.582031 679.484375 229.15625 679.574219 228.726562 679.660156 C 228.214844 679.757812 227.699219 679.855469 227.1875 679.949219 C 226.757812 680.03125 226.324219 680.109375 225.894531 680.1875 C 225.378906 680.277344 224.859375 680.359375 224.339844 680.445312 C 223.910156 680.515625 223.484375 680.585938 223.054688 680.652344 C 222.53125 680.734375 222.007812 680.804688 221.480469 680.878906 C 221.054688 680.941406 220.625 681.003906 220.199219 681.058594 C 219.667969 681.128906 219.136719 681.191406 218.605469 681.253906 C 218.183594 681.304688 217.757812 681.359375 217.332031 681.402344 C 216.789062 681.464844 216.246094 681.511719 215.703125 681.566406 C 215.289062 681.605469 214.875 681.648438 214.457031 681.6875 C 213.898438 681.734375 213.335938 681.773438 212.773438 681.816406 C 212.371094 681.847656 211.972656 681.878906 211.574219 681.90625 C 210.984375 681.945312 210.394531 681.972656 209.804688 682.003906 C 209.429688 682.023438 209.054688 682.046875 208.679688 682.066406 C 208.03125 682.09375 207.378906 682.109375 206.730469 682.128906 C 206.414062 682.136719 206.09375 682.152344 205.777344 682.160156 C 204.808594 682.179688 203.839844 682.191406 202.871094 682.191406 C 201.902344 682.191406 200.933594 682.175781 199.964844 682.15625 Z M 199.964844 682.15625 "/></g><g clip-rule="nonzero" clip-path="url(#f36b0da9bf)"><path style=" stroke:none;fill-rule:nonzero;fill:#ffffff;fill-opacity:1;" d="M 683.683594 437.800781 L 405.257812 437.800781 C 390.351562 437.800781 378.226562 449.925781 378.226562 464.832031 C 378.226562 479.738281 390.351562 491.863281 405.257812 491.863281 L 683.683594 491.863281 C 698.589844 491.863281 710.714844 479.738281 710.714844 464.832031 C 710.714844 449.925781 698.589844 437.800781 683.683594 437.800781 Z M 683.683594 479.5625 L 405.257812 479.5625 C 397.136719 479.5625 390.527344 472.953125 390.527344 464.832031 C 390.527344 456.710938 397.136719 450.101562 405.257812 450.101562 L 683.683594 450.101562 C 691.804688 450.101562 698.410156 456.710938 698.410156 464.832031 C 698.410156 472.953125 691.804688 479.5625 683.683594 479.5625 Z M 683.683594 479.5625 "/></g><g clip-rule="nonzero" clip-path="url(#c6998915b4)"><path style=" stroke:none;fill-rule:nonzero;fill:#ffffff;fill-opacity:1;" d="M 683.683594 522.628906 L 405.257812 522.628906 C 390.351562 522.628906 378.226562 534.753906 378.226562 549.660156 C 378.226562 564.566406 390.351562 576.691406 405.257812 576.691406 L 683.683594 576.691406 C 698.589844 576.691406 710.714844 564.566406 710.714844 549.660156 C 710.714844 534.753906 698.589844 522.628906 683.683594 522.628906 Z M 683.683594 564.390625 L 405.257812 564.390625 C 397.136719 564.390625 390.527344 557.78125 390.527344 549.660156 C 390.527344 541.539062 397.136719 534.933594 405.257812 534.933594 L 683.683594 534.933594 C 691.804688 534.933594 698.410156 541.539062 698.410156 549.660156 C 698.410156 557.78125 691.804688 564.390625 683.683594 564.390625 Z M 683.683594 564.390625 "/></g><g clip-rule="nonzero" clip-path="url(#5133531841)"><path style=" stroke:none;fill-rule:nonzero;fill:#ffffff;fill-opacity:1;" d="M 683.683594 605.4375 L 405.257812 605.4375 C 390.351562 605.4375 378.226562 617.5625 378.226562 632.46875 C 378.226562 647.375 390.351562 659.5 405.257812 659.5 L 683.683594 659.5 C 698.589844 659.5 710.714844 647.375 710.714844 632.46875 C 710.714844 617.5625 698.589844 605.4375 683.683594 605.4375 Z M 683.683594 647.199219 L 405.257812 647.199219 C 397.136719 647.199219 390.527344 640.589844 390.527344 632.46875 C 390.527344 624.347656 397.136719 617.738281 405.257812 617.738281 L 683.683594 617.738281 C 691.804688 617.738281 698.410156 624.347656 698.410156 632.46875 C 698.410156 640.589844 691.804688 647.199219 683.683594 647.199219 Z M 683.683594 647.199219 "/></g></g></svg>